<svg xmlns="http://www.w3.org/2000/svg" id="Layer_1" data-name="Layer 1" viewBox="0 0 500 300"><defs><style>      .cls-1 {        fill: #202091;      }      .cls-1, .cls-2 {        stroke-width: 0px;      }      .cls-2 {        fill: #4545d6;      }    </style></defs><path class="cls-2" d="M160.97,121.95c0-.32-.31-.63-.62-.63-.63,0-7.21-.63-7.21-.63,0,0-4.7-4.7-5.33-5.01-.63-.63-1.57-.32-1.88-.32,0,0-.94.32-2.51.94-1.57-4.38-4.39-8.46-9.09-8.46h-.31c-1.26-1.88-3.14-2.51-4.71-2.51-11.28-.31-16.61,13.8-18.49,21.01-2.51.62-5.02,1.56-7.84,2.5-2.51.63-2.51.94-2.82,3.14-.31,1.57-6.58,51.09-6.58,51.09l49.84,9.41,26.96-5.96s-9.41-63.95-9.41-64.57ZM133.7,118.81v.63l-9.09,2.51c1.88-6.59,5.02-9.41,7.84-10.66.63,1.88,1.25,4.07,1.25,7.52ZM129,108.15c.63,0,.94.32,1.57.63-3.76,1.57-7.53,5.64-9.41,14.42l-6.89,1.88c2.19-6.27,6.58-16.93,14.73-16.93ZM130.88,146.4s-2.82-1.57-6.58-1.57c-5.33,0-5.64,3.14-5.64,4.08,0,4.38,11.91,6.26,11.91,16.92,0,8.47-5.33,13.8-12.54,13.8-8.47,0-12.85-5.33-12.85-5.33l2.19-7.53s4.39,3.76,8.15,3.76c2.51,0,3.45-1.88,3.45-3.44,0-5.96-9.72-6.27-9.72-15.99,0-8.15,5.96-15.99,17.56-15.99,5.32-.31,7.52,1.26,7.52,1.26l-3.45,10.03ZM136.52,118.19v-.95c0-2.82-.31-5.01-.94-6.89,2.2.63,4.08,3.45,5.02,6.58l-4.08,1.26Z"></path><path class="cls-1" d="M160.03,121.32c-.31,0-6.9-.63-6.9-.63,0,0-4.7-4.7-5.33-5.02q-.31-.31-.63-.31l-3.76,77.11,26.96-5.96s-9.4-63.95-9.4-64.58c0-.31-.63-.63-.94-.63"></path><path class="cls-2" d="M202.04,154.86c-2.82-1.57-4.08-2.82-4.08-4.39,0-2.19,1.88-3.45,5.02-3.45,3.45,0,6.58,1.57,6.58,1.57l2.51-7.52s-2.19-1.88-8.78-1.88c-9.4,0-15.67,5.33-15.67,12.85,0,4.39,3.13,7.52,6.9,9.72,3.13,1.88,4.39,3.13,4.39,5.02s-1.57,3.76-4.7,3.76c-4.39,0-8.78-2.19-8.78-2.19l-2.51,7.52s3.76,2.51,10.34,2.51c9.4,0,16.3-4.7,16.3-13.17,0-4.7-3.45-8.15-7.52-10.34M239.97,138.87c-4.7,0-8.46,2.19-11.28,5.64h0l4.08-21.32h-10.66l-10.34,54.23h10.66l3.45-18.49c1.25-6.9,5.02-11.28,8.46-11.28,2.51,0,3.45,1.57,3.45,4.08,0,1.57,0,3.13-.31,4.7l-4.08,21.32h10.66l4.08-21.94c.31-2.19.63-5.02.63-6.9,0-6.27-3.13-10.03-8.78-10.03M267.24,169.91c-3.76,0-5.02-3.13-5.02-6.9,0-5.96,3.13-15.99,8.78-15.99,3.76,0,5.02,3.13,5.02,6.27,0,6.9-3.13,16.61-8.78,16.61ZM272.57,138.87c-12.85,0-21.32,11.6-21.32,24.45,0,8.15,5.02,14.73,14.73,14.73,12.54,0,21-11.28,21-24.45,0-7.52-4.39-14.73-14.42-14.73ZM303.92,170.22c-2.82,0-4.39-1.57-4.39-1.57l1.88-10.03c1.25-6.58,4.7-10.97,8.46-10.97,3.13,0,4.39,3.13,4.39,5.96-.31,6.9-4.39,16.61-10.34,16.61ZM314.26,138.87c-7.21,0-11.28,6.27-11.28,6.27h0l.63-5.64h-9.4c-.31,3.76-1.25,9.72-2.19,14.11l-7.52,38.87h10.66l2.82-15.67h.31s2.19,1.25,6.27,1.25c12.54,0,20.69-12.85,20.69-25.7,0-6.9-3.13-13.48-10.97-13.48ZM340.28,123.83c-3.45,0-5.96,2.82-5.96,6.27,0,3.13,1.88,5.33,5.02,5.33h0c3.45,0,6.27-2.19,6.27-6.27,0-3.13-2.19-5.33-5.33-5.33M325.55,177.43h10.66l7.21-37.62h-10.66l-7.21,37.62ZM370.37,139.81h-7.52l.31-1.88c.63-3.76,2.82-6.9,6.27-6.9,1.88,0,3.45.63,3.45.63l2.19-8.46s-1.88-.94-5.64-.94-7.52.94-10.34,3.45c-3.76,3.13-5.33,7.52-6.27,11.91l-.31,1.88h-5.02l-1.57,8.15h5.02l-5.64,29.78h10.66l5.64-29.78h7.21l1.57-7.84ZM395.76,139.81s-6.58,16.61-9.72,25.7h0c-.31-2.82-2.51-25.7-2.51-25.7h-11.28l6.27,34.48c0,.63,0,1.25-.31,1.88-1.25,2.51-3.45,4.7-5.64,6.27-1.88,1.57-4.39,2.51-5.96,3.13l2.82,9.09c2.19-.31,6.58-2.19,10.34-5.64,4.7-4.39,9.4-11.6,13.79-21l12.85-27.9-10.66-.31Z"></path></svg>