<svg xmlns="http://www.w3.org/2000/svg" id="Layer_1" data-name="Layer 1" viewBox="0 0 500 300"><defs><style>      .cls-1 {        fill: #4545d6;        stroke-width: 0px;      }    </style></defs><path class="cls-1" d="M247.42,137.04c-4.03-1.51-7.93-2.25-12.84-1.21-3.83.81-6.92,2.35-8.94,6.2.89.72,1.69,1.41,2.47,2.09,1.28,1.11,2.62,2.26,4.4,3.6,1.41-2.01,3.88-4.28,6.52-4.33,3.07-.06,6.01,1.63,6.49,4.1.2,1.03.33,5.26.33,5.26l-1.61.34c-.32.12-.67.12-.99,0l-.25-.1-.21-.08c-3.3-1.28-6.81-1.96-10.35-2.01-1.19,0-2.38.09-3.56.28-3.61.57-7.91,2.61-7.83,9.13.03,2.48.55,4.34,1.64,5.85,1.95,2.8,5.17,4.44,8.58,4.38,4.1.13,8.11-1.27,11.25-3.91.07-.05.81-.71,1.03-.87l2.22-1.72v6.46h9.24v-22.58c0-5.11-2.78-9.06-7.58-10.87ZM244.57,158.26c-1.98,3.54-5.2,5.54-8.9,5.54h-.47c-.78-.02-1.56-.12-2.31-.3-2.77-.73-4.35-2.96-4.23-5.96l.06-1.31h17l-1.13,2.03Z"></path><path class="cls-1" d="M343.98,137.04c-4.03-1.51-7.93-2.25-12.84-1.21-3.84.81-6.92,2.35-8.94,6.2.89.72,1.69,1.41,2.47,2.09,1.29,1.11,2.62,2.26,4.4,3.6,1.41-2.01,3.88-4.28,6.52-4.33,3.07-.06,6.01,1.63,6.49,4.1.2,1.03.33,5.26.33,5.26l-1.6.34c-.32.12-.67.12-.99,0-.08-.03-.17-.06-.25-.1l-.21-.08c-3.3-1.28-6.81-1.96-10.35-2.01-1.19,0-2.38.09-3.56.28-3.61.57-7.91,2.61-7.83,9.13.03,2.48.55,4.34,1.64,5.85,1.95,2.8,5.17,4.44,8.58,4.38,4.1.13,8.11-1.27,11.25-3.91.06-.05.81-.71,1.03-.87l2.22-1.72v6.46h9.24v-22.58c0-5.11-2.78-9.06-7.59-10.87ZM341.12,158.26c-1.97,3.54-5.2,5.54-8.9,5.54h-.47c-.78-.02-1.55-.12-2.31-.3-2.78-.73-4.35-2.96-4.23-5.96l.06-1.31h16.99l-1.13,2.03Z"></path><path class="cls-1" d="M407.13,137.04c-4.03-1.51-7.93-2.25-12.84-1.21-3.83.81-6.92,2.35-8.94,6.2.89.72,1.69,1.41,2.47,2.09,1.28,1.11,2.62,2.26,4.4,3.6,1.41-2.01,3.88-4.28,6.52-4.33,3.07-.06,6.01,1.63,6.49,4.1.2,1.03.33,5.26.33,5.26l-1.61.34c-.32.12-.67.12-.98,0-.08-.03-.17-.06-.25-.1l-.21-.08c-3.3-1.28-6.81-1.96-10.35-2.01-1.19,0-2.38.09-3.56.28-3.61.57-7.91,2.61-7.83,9.13.03,2.48.55,4.34,1.64,5.85,1.95,2.8,5.17,4.44,8.58,4.38,4.1.13,8.11-1.27,11.25-3.91.06-.05.81-.71,1.03-.87l2.22-1.72v6.46h9.24v-22.58c0-5.11-2.78-9.06-7.58-10.87ZM404.27,158.26c-1.98,3.54-5.2,5.54-8.9,5.54h-.47c-.78-.02-1.56-.12-2.31-.3-2.77-.73-4.35-2.96-4.23-5.96l.06-1.31h16.99l-1.12,2.03Z"></path><path class="cls-1" d="M376.89,138.25c-2.99.14-5.12,1.44-6.53,4.02-.16.28-1.15,2.24-1.15,2.24l-2.22-.51v-5.29h-8.94v31.86h8.96v-12.44c0-1.06-.07-2.15,0-3.25.27-3.96,3.31-7.16,7.25-7.64,1.25-.18,4.4-.19,4.74-.2v-8.8c-.75,0-1.43-.01-2.11.02Z"></path><path class="cls-1" d="M214.14,163.12c-.79-.01-1.57-.08-2.35-.19-2.35-.39-3.85-1.54-4.49-3.45-.29-.8-.45-1.63-.47-2.48v-14.23l1.39-.06c2.97-.15,6.12-.36,9.1-1.19l-1.91-6.5-8.58,1.27v-9.56h-10.14v9.56h-6.85v6.56h6.85s0,13.52.06,16.98c0,2.11.61,4.17,1.75,5.95,1.36,2.07,3.34,3.37,6.24,4.09,3.12.77,6.28.73,9.62.69h.8v-7.41h-.39l-.64-.04Z"></path><path class="cls-1" d="M291.76,152.62c0-3.22,2.16-5.76,5.1-6.03,3.55-.33,6.04,1.44,6.68,4.74.09.58.13,1.17.12,1.75v17.44h8.94v-21.54c0-1.04-.08-2.07-.25-3.1-.74-3.95-2.86-6.36-6.43-7.38-3.87-1.08-10.35-.27-13.36,4.99l-1.37,2.75c-.79-3.94-3.04-6.8-6.64-7.83-3.87-1.08-9.7-.17-12.7,5.09l-1.35,2.35v-7.15h-9.35v31.86h9.31v-17.28c0-.6.04-1.19.11-1.78.22-2.29,1.86-4.19,4.09-4.74,2.55-.66,5.2.16,6.59,2.05.82,1.22,1.22,2.67,1.14,4.14v17.6h9.37v-17.92Z"></path><path class="cls-1" d="M89.56,139.13c-1.86,1.94-3.31,4.22-4.28,6.72l29.64,24.57c1.46-.9,2.8-1.97,3.98-3.2l.58-.6c11.23-11.72,3.85-24.42-.62-28.69h0c-8.1-7.75-20.94-7.47-28.69.62l-.61.59Z"></path><circle class="cls-1" cx="150.7" cy="152.74" r="20.52"></circle></svg>