<svg xmlns="http://www.w3.org/2000/svg" id="Layer_1" data-name="Layer 1" viewBox="0 0 500 300"><defs><style>      .cls-1 {        fill: #4545d6;        stroke-width: 0px;      }    </style></defs><path class="cls-1" d="M342.33,128.74l-14.77,56.39v.18h11.56l14.77-56.39h-11.56v-.18ZM159.8,160.76c-1.78.89-3.56,1.25-5.51,1.25-4.09,0-6.4-.71-6.76-4.09v-18.32h0v-10.5l-10.32,1.25c6.94-1.42,10.85-6.76,10.85-12.28v-3.38h-11.56v15.83l-.71.18v29.18c.36,8.18,5.87,13.16,14.59,13.16,3.2,0,6.58-.71,9.25-1.96h0l.18-10.32h0Z"></path><path class="cls-1" d="M161.58,126.61l-32.38,4.98v8.18l32.38-4.98v-8.18ZM161.58,138.7l-32.38,4.98v7.83l32.38-4.98v-7.83ZM197.88,142.44c-.53-9.07-6.23-14.59-15.48-14.59-5.34,0-9.78,2.13-12.81,6.05-3.02,3.91-4.63,9.61-4.63,16.54s1.6,12.63,4.63,16.54c3.02,3.91,7.47,5.87,12.81,5.87,9.25,0,14.94-5.34,15.48-14.59v13.7h11.56v-43.05l-11.56,1.78v11.74h0ZM198.59,150.44c0,8.01-4.27,13.34-10.85,13.34s-10.85-4.98-10.85-13.34,4.09-13.34,10.85-13.34c3.2,0,6.05,1.25,8.01,3.74,1.78,2.31,2.85,5.69,2.85,9.61h0ZM243.06,127.85c-9.25,0-14.94,5.34-15.48,14.59v-26.15l-11.56,1.78v53.9h11.56v-13.7c.53,9.25,6.23,14.59,15.48,14.59,10.85,0,17.43-8.36,17.43-22.42s-6.58-22.59-17.43-22.59ZM237.9,163.79c-6.58,0-10.85-5.16-10.85-13.34,0-3.91,1.07-7.29,2.85-9.61,1.96-2.49,4.63-3.74,8.01-3.74,6.76,0,10.85,4.98,10.85,13.34,0,8.36-4.09,13.34-10.85,13.34h0ZM291.81,127.85c-9.25,0-14.94,5.34-15.48,14.59v-26.15l-11.56,1.78v53.9h11.56v-13.7c.53,9.25,6.23,14.59,15.48,14.59,10.85,0,17.43-8.36,17.43-22.42s-6.58-22.59-17.43-22.59h0ZM286.65,163.79c-6.58,0-10.85-5.16-10.85-13.34,0-3.91,1.07-7.29,2.85-9.61,1.96-2.49,4.63-3.74,8.01-3.74,6.76,0,10.85,4.98,10.85,13.34s-4.09,13.34-10.85,13.34h0ZM309.24,128.74h12.28l9.96,43.23h-11.03s-11.21-43.23-11.21-43.23ZM363.32,133.19v-3.38h-1.42v-.71h3.74v.71h-1.42v3.38h-.89ZM365.81,133.19v-4.27h1.42l.71,1.96c.18.53.36.71.36.89,0-.18.18-.36.36-.89l.71-1.96h1.42v4.27h-.89v-3.38l-1.25,3.38h-.89l-1.07-3.38v3.38h-.89Z"></path></svg>