<svg xmlns="http://www.w3.org/2000/svg" width="1408" height="761" viewBox="0 0 1408 761" fill="none"><g style="mix-blend-mode:soft-light" opacity="0.2"><path d="M-136 0H-176V40M-136 0V40M-136 0H-96M-136 40H-176M-136 40V80M-136 40H-96M-176 40V80M-136 80H-176M-136 80V120M-136 80H-96M-176 80V120M-136 120H-176M-136 120V160M-136 120H-96M-176 120V160M-136 160H-176M-136 160V200M-136 160H-96M-176 160V200M-136 200H-176M-136 200V240M-136 200H-96M-176 200V240M-136 240H-176M-136 240V280M-136 240H-96M-176 240V280M-136 280H-176M-136 280V320M-136 280H-96M-176 280V320M-136 320H-176M-136 320V360M-136 320H-96M-176 320V360M-136 360H-176M-136 360V400M-136 360H-96M-176 360V400M-136 400H-176M-136 400V440M-136 400H-96M-176 400V440M-136 440H-176M-136 440V480M-136 440H-96M-176 440V480M-136 480H-176M-136 480V520M-136 480H-96M-176 480V520M-136 520H-176M-136 520V560M-136 520H-96M-176 520V560M-136 560H-176M-136 560V600M-136 560H-96M-176 560V600M-136 600H-176M-136 600V640M-136 600H-96M-176 600V640M-136 640H-176M-136 640V680M-136 640H-96M-176 640V680M-136 680H-176M-136 680V720M-136 680H-96M-176 680V720M-136 720H-176M-136 720V760M-136 720H-96M-176 720V760H-136M-136 760H-96M-96 0V40M-96 0H-56M-96 40V80M-96 40H-56M-96 80V120M-96 80H-56M-96 120V160M-96 120H-56M-96 160V200M-96 160H-56M-96 200V240M-96 200H-56M-96 240V280M-96 240H-56M-96 280V320M-96 280H-56M-96 320V360M-96 320H-56M-96 360V400M-96 360H-56M-96 400V440M-96 400H-56M-96 440V480M-96 440H-56M-96 480V520M-96 480H-56M-96 520V560M-96 520H-56M-96 560V600M-96 560H-56M-96 600V640M-96 600H-56M-96 640V680M-96 640H-56M-96 680V720M-96 680H-56M-96 720V760M-96 720H-56M-96 760H-56M-56 0V40M-56 0H-16M-56 40V80M-56 40H-16M-56 80V120M-56 80H-16M-56 120V160M-56 120H-16M-56 160V200M-56 160H-16M-56 200V240M-56 200H-16M-56 240V280M-56 240H-16M-56 280V320M-56 280H-16M-56 320V360M-56 320H-16M-56 360V400M-56 360H-16M-56 400V440M-56 400H-16M-56 440V480M-56 440H-16M-56 480V520M-56 480H-16M-56 520V560M-56 520H-16M-56 560V600M-56 560H-16M-56 600V640M-56 600H-16M-56 640V680M-56 640H-16M-56 680V720M-56 680H-16M-56 720V760M-56 720H-16M-56 760H-16M-16 0V40M-16 0H24M-16 40V80M-16 40H24M-16 80V120M-16 80H24M-16 120V160M-16 120H24M-16 160V200M-16 160H24M-16 200V240M-16 200H24M-16 240V280M-16 240H24M-16 280V320M-16 280H24M-16 320V360M-16 320H24M-16 360V400M-16 360H24M-16 400V440M-16 400H24M-16 440V480M-16 440H24M-16 480V520M-16 480H24M-16 520V560M-16 520H24M-16 560V600M-16 560H24M-16 600V640M-16 600H24M-16 640V680M-16 640H24M-16 680V720M-16 680H24M-16 720V760M-16 720H24M-16 760H24M24 0V40M24 0H64M24 40V80M24 40H64M24 80V120M24 80H64M24 120V160M24 120H64M24 160V200M24 160H64M24 200V240M24 200H64M24 240V280M24 240H64M24 280V320M24 280H64M24 320V360M24 320H64M24 360V400M24 360H64M24 400V440M24 400H64M24 440V480M24 440H64M24 480V520M24 480H64M24 520V560M24 520H64M24 560V600M24 560H64M24 600V640M24 600H64M24 640V680M24 640H64M24 680V720M24 680H64M24 720V760M24 720H64M24 760H64M64 0V40M64 0H104M64 40V80M64 40H104M64 80V120M64 80H104M64 120V160M64 120H104M64 160V200M64 160H104M64 200V240M64 200H104M64 240V280M64 240H104M64 280V320M64 280H104M64 320V360M64 320H104M64 360V400M64 360H104M64 400V440M64 400H104M64 440V480M64 440H104M64 480V520M64 480H104M64 520V560M64 520H104M64 560V600M64 560H104M64 600V640M64 600H104M64 640V680M64 640H104M64 680V720M64 680H104M64 720V760M64 720H104M64 760H104M104 0V40M104 0H144M104 40V80M104 40H144M104 80V120M104 80H144M104 120V160M104 120H144M104 160V200M104 160H144M104 200V240M104 200H144M104 240V280M104 240H144M104 280V320M104 280H144M104 320V360M104 320H144M104 360V400M104 360H144M104 400V440M104 400H144M104 440V480M104 440H144M104 480V520M104 480H144M104 520V560M104 520H144M104 560V600M104 560H144M104 600V640M104 600H144M104 640V680M104 640H144M104 680V720M104 680H144M104 720V760M104 720H144M104 760H144M144 0V40M144 0H184M144 40V80M144 40H184M144 80V120M144 80H184M144 120V160M144 120H184M144 160V200M144 160H184M144 200V240M144 200H184M144 240V280M144 240H184M144 280V320M144 280H184M144 320V360M144 320H184M144 360V400M144 360H184M144 400V440M144 400H184M144 440V480M144 440H184M144 480V520M144 480H184M144 520V560M144 520H184M144 560V600M144 560H184M144 600V640M144 600H184M144 640V680M144 640H184M144 680V720M144 680H184M144 720V760M144 720H184M144 760H184M184 0V40M184 0H224M184 40V80M184 40H224M184 80V120M184 80H224M184 120V160M184 120H224M184 160V200M184 160H224M184 200V240M184 200H224M184 240V280M184 240H224M184 280V320M184 280H224M184 320V360M184 320H224M184 360V400M184 360H224M184 400V440M184 400H224M184 440V480M184 440H224M184 480V520M184 480H224M184 520V560M184 520H224M184 560V600M184 560H224M184 600V640M184 600H224M184 640V680M184 640H224M184 680V720M184 680H224M184 720V760M184 720H224M184 760H224M224 0V40M224 0H264M224 40V80M224 40H264M224 80V120M224 80H264M224 120V160M224 120H264M224 160V200M224 160H264M224 200V240M224 200H264M224 240V280M224 240H264M224 280V320M224 280H264M224 320V360M224 320H264M224 360V400M224 360H264M224 400V440M224 400H264M224 440V480M224 440H264M224 480V520M224 480H264M224 520V560M224 520H264M224 560V600M224 560H264M224 600V640M224 600H264M224 640V680M224 640H264M224 680V720M224 680H264M224 720V760M224 720H264M224 760H264M264 0V40M264 0H304M264 40V80M264 40H304M264 80V120M264 80H304M264 120V160M264 120H304M264 160V200M264 160H304M264 200V240M264 200H304M264 240V280M264 240H304M264 280V320M264 280H304M264 320V360M264 320H304M264 360V400M264 360H304M264 400V440M264 400H304M264 440V480M264 440H304M264 480V520M264 480H304M264 520V560M264 520H304M264 560V600M264 560H304M264 600V640M264 600H304M264 640V680M264 640H304M264 680V720M264 680H304M264 720V760M264 720H304M264 760H304M304 0V40M304 0H344M304 40V80M304 40H344M304 80V120M304 80H344M304 120V160M304 120H344M304 160V200M304 160H344M304 200V240M304 200H344M304 240V280M304 240H344M304 280V320M304 280H344M304 320V360M304 320H344M304 360V400M304 360H344M304 400V440M304 400H344M304 440V480M304 440H344M304 480V520M304 480H344M304 520V560M304 520H344M304 560V600M304 560H344M304 600V640M304 600H344M304 640V680M304 640H344M304 680V720M304 680H344M304 720V760M304 720H344M304 760H344M344 0V40M344 0H384M344 40V80M344 40H384M344 80V120M344 80H384M344 120V160M344 120H384M344 160V200M344 160H384M344 200V240M344 200H384V160M344 240V280M344 280V320M344 280H384V320M344 320V360M344 320H384M344 360V400M344 360H384M344 400V440M344 400H384M344 440V480M344 440H384M344 480V520M344 480H384M344 520V560M344 520H384M344 560V600M344 560H384M344 600V640M344 600H384M344 640V680M344 640H384M344 680V720M344 680H384M344 720V760M344 720H384M344 760H384M384 0V40M384 0H424M384 40V80M384 40H424M384 80V120M384 80H424M384 120V160M384 120H424M384 320V360M384 320H424V360M384 360V400M384 360H424M384 400V440M384 400H424M384 440V480M384 440H424M384 480V520M384 480H424M384 520V560M384 520H424M384 560V600M384 560H424M384 600V640M384 600H424M384 640V680M384 640H424M384 680V720M384 680H424M384 720V760M384 720H424M384 760H424M424 0V40M424 0H464M424 40V80M424 40H464M424 80V120M424 80H464M424 120H464M424 360V400M424 360H464M424 400V440M424 400H464M424 440V480M424 440H464M424 480V520M424 480H464M424 520V560M424 520H464M424 560V600M424 560H464M424 600V640M424 600H464M424 640V680M424 640H464M424 680V720M424 680H464M424 720V760M424 720H464M424 760H464M464 0V40M464 0H504M464 40V80M464 40H504M464 80V120M464 80H504M464 120H504M464 360V400M464 360H504M464 400V440M464 400H504M464 440V480M464 440H504M464 480V520M464 480H504M464 520V560M464 520H504M464 560V600M464 560H504M464 600V640M464 600H504M464 640V680M464 640H504M464 680V720M464 680H504M464 720V760M464 720H504M464 760H504M504 0V40M504 0H544M504 40V80M504 40H544M504 80V120M504 80H544M504 120H544M504 360V400M504 360H544M504 400V440M504 400H544M504 440V480M504 440H544M504 480V520M504 480H544M504 520V560M504 520H544M504 560V600M504 560H544M504 600V640M504 600H544M504 640V680M504 640H544M504 680V720M504 680H544M504 720V760M504 720H544M504 760H544M544 0V40M544 0H584M544 40V80M544 40H584M544 80V120M544 80H584M544 120H584M544 360V400M544 360H584M544 400V440M544 400H584M544 440V480M544 440H584M544 480V520M544 480H584M544 520V560M544 520H584M544 560V600M544 560H584M544 600V640M544 600H584M544 640V680M544 640H584M544 680V720M544 680H584M544 720V760M544 720H584M544 760H584M584 0V40M584 0H624M584 40V80M584 40H624M584 80V120M584 80H624M584 120H624M584 360V400M584 360H624M584 400V440M584 400H624M584 440V480M584 440H624M584 480V520M584 480H624M584 520V560M584 520H624M584 560V600M584 560H624M584 600V640M584 600H624M584 640V680M584 640H624M584 680V720M584 680H624M584 720V760M584 720H624M584 760H624M624 0V40M624 0H664M624 40V80M624 40H664M624 80V120M624 80H664M624 120H664M624 360V400M624 360H664M624 400V440M624 400H664M624 440V480M624 440H664M624 480V520M624 480H664M624 520V560M624 520H664M624 560V600M624 560H664M624 600V640M624 600H664M624 640V680M624 640H664M624 680V720M624 680H664M624 720V760M624 720H664M624 760H664M664 0V40M664 0H704M664 40V80M664 40H704M664 80V120M664 80H704M664 120H704M664 360V400M664 360H704M664 400V440M664 400H704M664 440V480M664 440H704M664 480V520M664 480H704M664 520V560M664 520H704M664 560V600M664 560H704M664 600V640M664 600H704M664 640V680M664 640H704M664 680V720M664 680H704M664 720V760M664 720H704M664 760H704M704 0V40M704 0H744M704 40V80M704 40H744M704 80V120M704 80H744M704 120H744M704 360V400M704 360H744M704 400V440M704 400H744M704 440V480M704 440H744M704 480V520M704 480H744M704 520V560M704 520H744M704 560V600M704 560H744M704 600V640M704 600H744M704 640V680M704 640H744M704 680V720M704 680H744M704 720V760M704 720H744M704 760H744M744 0V40M744 0H784M744 40V80M744 40H784M744 80V120M744 80H784M744 120H784M744 360V400M744 360H784M744 400V440M744 400H784M744 440V480M744 440H784M744 480V520M744 480H784M744 520V560M744 520H784M744 560V600M744 560H784M744 600V640M744 600H784M744 640V680M744 640H784M744 680V720M744 680H784M744 720V760M744 720H784M744 760H784M784 0V40M784 0H824M784 40V80M784 40H824M784 80V120M784 80H824M784 120H824M784 360V400M784 360H824M784 400V440M784 400H824M784 440V480M784 440H824M784 480V520M784 480H824M784 520V560M784 520H824M784 560V600M784 560H824M784 600V640M784 600H824M784 640V680M784 640H824M784 680V720M784 680H824M784 720V760M784 720H824M784 760H824M824 0V40M824 0H864M824 40V80M824 40H864M824 80V120M824 80H864M824 120H864M824 360V400M824 360H864M824 400V440M824 400H864M824 440V480M824 440H864M824 480V520M824 480H864M824 520V560M824 520H864M824 560V600M824 560H864M824 600V640M824 600H864M824 640V680M824 640H864M824 680V720M824 680H864M824 720V760M824 720H864M824 760H864M864 0V40M864 0H904M864 40V80M864 40H904M864 80V120M864 80H904M864 120H904M864 360V400M864 360H904M864 400V440M864 400H904M864 440V480M864 440H904M864 480V520M864 480H904M864 520V560M864 520H904M864 560V600M864 560H904M864 600V640M864 600H904M864 640V680M864 640H904M864 680V720M864 680H904M864 720V760M864 720H904M864 760H904M904 0V40M904 0H944M904 40V80M904 40H944M904 80V120M904 80H944M904 120H944M904 360V400M904 360H944M904 400V440M904 400H944M904 440V480M904 440H944M904 480V520M904 480H944M904 520V560M904 520H944M904 560V600M904 560H944M904 600V640M904 600H944M904 640V680M904 640H944M904 680V720M904 680H944M904 720V760M904 720H944M904 760H944M944 0V40M944 0H984M944 40V80M944 40H984M944 80V120M944 80H984M944 120H984M944 360V400M944 360H984M944 400V440M944 400H984M944 440V480M944 440H984M944 480V520M944 480H984M944 520V560M944 520H984M944 560V600M944 560H984M944 600V640M944 600H984M944 640V680M944 640H984M944 680V720M944 680H984M944 720V760M944 720H984M944 760H984M984 0V40M984 0H1024M984 40V80M984 40H1024M984 80V120M984 80H1024M984 120H1024M984 360V320H1024M984 360V400M984 360H1024M984 400V440M984 400H1024M984 440V480M984 440H1024M984 480V520M984 480H1024M984 520V560M984 520H1024M984 560V600M984 560H1024M984 600V640M984 600H1024M984 640V680M984 640H1024M984 680V720M984 680H1024M984 720V760M984 720H1024M984 760H1024M1024 0V40M1024 0H1064M1024 40V80M1024 40H1064M1024 80V120M1024 80H1064M1024 120V160M1024 120H1064M1024 160V200H1064M1024 160H1064M1024 320V280H1064M1024 320V360M1024 320H1064M1024 360V400M1024 360H1064M1024 400V440M1024 400H1064M1024 440V480M1024 440H1064M1024 480V520M1024 480H1064M1024 520V560M1024 520H1064M1024 560V600M1024 560H1064M1024 600V640M1024 600H1064M1024 640V680M1024 640H1064M1024 680V720M1024 680H1064M1024 720V760M1024 720H1064M1024 760H1064M1064 0V40M1064 0H1104M1064 40V80M1064 40H1104M1064 80V120M1064 80H1104M1064 120V160M1064 120H1104M1064 160V200M1064 160H1104M1064 200V240M1064 200H1104M1064 240V280M1064 240H1104M1064 280V320M1064 280H1104M1064 320V360M1064 320H1104M1064 360V400M1064 360H1104M1064 400V440M1064 400H1104M1064 440V480M1064 440H1104M1064 480V520M1064 480H1104M1064 520V560M1064 520H1104M1064 560V600M1064 560H1104M1064 600V640M1064 600H1104M1064 640V680M1064 640H1104M1064 680V720M1064 680H1104M1064 720V760M1064 720H1104M1064 760H1104M1104 0V40M1104 0H1144M1104 40V80M1104 40H1144M1104 80V120M1104 80H1144M1104 120V160M1104 120H1144M1104 160V200M1104 160H1144M1104 200V240M1104 200H1144M1104 240V280M1104 240H1144M1104 280V320M1104 280H1144M1104 320V360M1104 320H1144M1104 360V400M1104 360H1144M1104 400V440M1104 400H1144M1104 440V480M1104 440H1144M1104 480V520M1104 480H1144M1104 520V560M1104 520H1144M1104 560V600M1104 560H1144M1104 600V640M1104 600H1144M1104 640V680M1104 640H1144M1104 680V720M1104 680H1144M1104 720V760M1104 720H1144M1104 760H1144M1144 0V40M1144 0H1184M1144 40V80M1144 40H1184M1144 80V120M1144 80H1184M1144 120V160M1144 120H1184M1144 160V200M1144 160H1184M1144 200V240M1144 200H1184M1144 240V280M1144 240H1184M1144 280V320M1144 280H1184M1144 320V360M1144 320H1184M1144 360V400M1144 360H1184M1144 400V440M1144 400H1184M1144 440V480M1144 440H1184M1144 480V520M1144 480H1184M1144 520V560M1144 520H1184M1144 560V600M1144 560H1184M1144 600V640M1144 600H1184M1144 640V680M1144 640H1184M1144 680V720M1144 680H1184M1144 720V760M1144 720H1184M1144 760H1184M1184 0V40M1184 0H1224M1184 40V80M1184 40H1224M1184 80V120M1184 80H1224M1184 120V160M1184 120H1224M1184 160V200M1184 160H1224M1184 200V240M1184 200H1224M1184 240V280M1184 240H1224M1184 280V320M1184 280H1224M1184 320V360M1184 320H1224M1184 360V400M1184 360H1224M1184 400V440M1184 400H1224M1184 440V480M1184 440H1224M1184 480V520M1184 480H1224M1184 520V560M1184 520H1224M1184 560V600M1184 560H1224M1184 600V640M1184 600H1224M1184 640V680M1184 640H1224M1184 680V720M1184 680H1224M1184 720V760M1184 720H1224M1184 760H1224M1224 0V40M1224 0H1264M1224 40V80M1224 40H1264M1224 80V120M1224 80H1264M1224 120V160M1224 120H1264M1224 160V200M1224 160H1264M1224 200V240M1224 200H1264M1224 240V280M1224 240H1264M1224 280V320M1224 280H1264M1224 320V360M1224 320H1264M1224 360V400M1224 360H1264M1224 400V440M1224 400H1264M1224 440V480M1224 440H1264M1224 480V520M1224 480H1264M1224 520V560M1224 520H1264M1224 560V600M1224 560H1264M1224 600V640M1224 600H1264M1224 640V680M1224 640H1264M1224 680V720M1224 680H1264M1224 720V760M1224 720H1264M1224 760H1264M1264 0V40M1264 0H1304M1264 40V80M1264 40H1304M1264 80V120M1264 80H1304M1264 120V160M1264 120H1304M1264 160V200M1264 160H1304M1264 200V240M1264 200H1304M1264 240V280M1264 240H1304M1264 280V320M1264 280H1304M1264 320V360M1264 320H1304M1264 360V400M1264 360H1304M1264 400V440M1264 400H1304M1264 440V480M1264 440H1304M1264 480V520M1264 480H1304M1264 520V560M1264 520H1304M1264 560V600M1264 560H1304M1264 600V640M1264 600H1304M1264 640V680M1264 640H1304M1264 680V720M1264 680H1304M1264 720V760M1264 720H1304M1264 760H1304M1304 0V40M1304 0H1344M1304 40V80M1304 40H1344M1304 80V120M1304 80H1344M1304 120V160M1304 120H1344M1304 160V200M1304 160H1344M1304 200V240M1304 200H1344M1304 240V280M1304 240H1344M1304 280V320M1304 280H1344M1304 320V360M1304 320H1344M1304 360V400M1304 360H1344M1304 400V440M1304 400H1344M1304 440V480M1304 440H1344M1304 480V520M1304 480H1344M1304 520V560M1304 520H1344M1304 560V600M1304 560H1344M1304 600V640M1304 600H1344M1304 640V680M1304 640H1344M1304 680V720M1304 680H1344M1304 720V760M1304 720H1344M1304 760H1344M1344 0V40M1344 0H1384M1344 40V80M1344 40H1384M1344 80V120M1344 80H1384M1344 120V160M1344 120H1384M1344 160V200M1344 160H1384M1344 200V240M1344 200H1384M1344 240V280M1344 240H1384M1344 280V320M1344 280H1384M1344 320V360M1344 320H1384M1344 360V400M1344 360H1384M1344 400V440M1344 400H1384M1344 440V480M1344 440H1384M1344 480V520M1344 480H1384M1344 520V560M1344 520H1384M1344 560V600M1344 560H1384M1344 600V640M1344 600H1384M1344 640V680M1344 640H1384M1344 680V720M1344 680H1384M1344 720V760M1344 720H1384M1344 760H1384M1384 0V40M1384 0H1424M1384 40V80M1384 40H1424M1384 80V120M1384 80H1424M1384 120V160M1384 120H1424M1384 160V200M1384 160H1424M1384 200V240M1384 200H1424M1384 240V280M1384 240H1424M1384 280V320M1384 280H1424M1384 320V360M1384 320H1424M1384 360V400M1384 360H1424M1384 400V440M1384 400H1424M1384 440V480M1384 440H1424M1384 480V520M1384 480H1424M1384 520V560M1384 520H1424M1384 560V600M1384 560H1424M1384 600V640M1384 600H1424M1384 640V680M1384 640H1424M1384 680V720M1384 680H1424M1384 720V760M1384 720H1424M1384 760H1424M1424 0V40M1424 0H1464M1424 40V80M1424 40H1464M1424 80V120M1424 80H1464M1424 120V160M1424 120H1464M1424 160V200M1424 160H1464M1424 200V240M1424 200H1464M1424 240V280M1424 240H1464M1424 280V320M1424 280H1464M1424 320V360M1424 320H1464M1424 360V400M1424 360H1464M1424 400V440M1424 400H1464M1424 440V480M1424 440H1464M1424 480V520M1424 480H1464M1424 520V560M1424 520H1464M1424 560V600M1424 560H1464M1424 600V640M1424 600H1464M1424 640V680M1424 640H1464M1424 680V720M1424 680H1464M1424 720V760M1424 720H1464M1424 760H1464M1464 0V40M1464 0H1504M1464 40V80M1464 40H1504M1464 80V120M1464 80H1504M1464 120V160M1464 120H1504M1464 160V200M1464 160H1504M1464 200V240M1464 200H1504M1464 240V280M1464 240H1504M1464 280V320M1464 280H1504M1464 320V360M1464 320H1504M1464 360V400M1464 360H1504M1464 400V440M1464 400H1504M1464 440V480M1464 440H1504M1464 480V520M1464 480H1504M1464 520V560M1464 520H1504M1464 560V600M1464 560H1504M1464 600V640M1464 600H1504M1464 640V680M1464 640H1504M1464 680V720M1464 680H1504M1464 720V760M1464 720H1504M1464 760H1504M1504 0V40M1504 0H1544M1504 40V80M1504 40H1544M1504 80V120M1504 80H1544M1504 120V160M1504 120H1544M1504 160V200M1504 160H1544M1504 200V240M1504 200H1544M1504 240V280M1504 240H1544M1504 280V320M1504 280H1544M1504 320V360M1504 320H1544M1504 360V400M1504 360H1544M1504 400V440M1504 400H1544M1504 440V480M1504 440H1544M1504 480V520M1504 480H1544M1504 520V560M1504 520H1544M1504 560V600M1504 560H1544M1504 600V640M1504 600H1544M1504 640V680M1504 640H1544M1504 680V720M1504 680H1544M1504 720V760M1504 720H1544M1504 760H1544M1544 0V40M1544 0H1584V40M1544 40V80M1544 40H1584M1544 80V120M1544 80H1584M1544 120V160M1544 120H1584M1544 160V200M1544 160H1584M1544 200V240M1544 200H1584M1544 240V280M1544 240H1584M1544 280V320M1544 280H1584M1544 320V360M1544 320H1584M1544 360V400M1544 360H1584M1544 400V440M1544 400H1584M1544 440V480M1544 440H1584M1544 480V520M1544 480H1584M1544 520V560M1544 520H1584M1544 560V600M1544 560H1584M1544 600V640M1544 600H1584M1544 640V680M1544 640H1584M1544 680V720M1544 680H1584M1544 720V760M1544 720H1584M1544 760H1584V720M1584 40V80M1584 80V120M1584 120V160M1584 160V200M1584 200V240M1584 240V280M1584 280V320M1584 320V360M1584 360V400M1584 400V440M1584 440V480M1584 480V520M1584 520V560M1584 560V600M1584 600V640M1584 640V680M1584 680V720" stroke="url(#paint0_radial_2046_93937)"></path></g><g filter="url(#filter0_b_2046_93937)"><rect x="144" y="120" width="160" height="320" fill="white" fill-opacity="0.01"></rect><rect x="144" y="120" width="160" height="320" stroke="white" stroke-opacity="0.24" stroke-dasharray="4 4"></rect></g><rect x="160" y="280" width="128" height="40" rx="20" fill="white" fill-opacity="0.1"></rect><rect x="160.5" y="280.5" width="127" height="39" rx="19.5" stroke="url(#paint1_linear_2046_93937)" stroke-opacity="0.1"></rect><rect x="160" y="331" width="128" height="93" rx="8" fill="white" fill-opacity="0.1"></rect><rect x="160.5" y="331.5" width="127" height="92" rx="7.5" stroke="url(#paint2_linear_2046_93937)" stroke-opacity="0.1"></rect><rect x="186" y="144" width="76" height="76" rx="38" fill="white" fill-opacity="0.05"></rect><rect x="186.5" y="144.5" width="75" height="75" rx="37.5" stroke="url(#paint3_linear_2046_93937)" stroke-opacity="0.1"></rect><rect x="172" y="234" width="104" height="12" rx="6" fill="white" fill-opacity="0.1"></rect><rect x="172.5" y="234.5" width="103" height="11" rx="5.5" stroke="white" stroke-opacity="0.1"></rect><rect x="172" y="383" width="104" height="12" rx="6" fill="white" fill-opacity="0.1"></rect><rect x="172.5" y="383.5" width="103" height="11" rx="5.5" stroke="white" stroke-opacity="0.1"></rect><rect x="194" y="254" width="60" height="10" rx="5" fill="white" fill-opacity="0.1"></rect><rect x="194.5" y="254.5" width="59" height="9" rx="4.5" stroke="white" stroke-opacity="0.1"></rect><rect x="204" y="295" width="69" height="10" rx="5" fill="white" fill-opacity="0.1"></rect><rect x="204.5" y="295.5" width="68" height="9" rx="4.5" stroke="white" stroke-opacity="0.1"></rect><rect x="194" y="405" width="60" height="10" rx="5" fill="white" fill-opacity="0.1"></rect><rect x="194.5" y="405.5" width="59" height="9" rx="4.5" stroke="white" stroke-opacity="0.1"></rect><rect x="164" y="335" width="120" height="40" rx="4" fill="white" fill-opacity="0.1"></rect><rect x="164.5" y="335.5" width="119" height="39" rx="3.5" stroke="white" stroke-opacity="0.1"></rect><rect x="164" y="284" width="32" height="32" rx="16" fill="white" fill-opacity="0.1"></rect><rect x="164.5" y="284.5" width="31" height="31" rx="15.5" stroke="white" stroke-opacity="0.1"></rect><g filter="url(#filter1_b_2046_93937)"><rect x="144" y="520" width="160" height="40" rx="20" fill="white" fill-opacity="0.01"></rect><rect x="144" y="520" width="160" height="40" rx="20" stroke="white" stroke-opacity="0.24" stroke-dasharray="4 4"></rect></g><rect x="148" y="524" width="32" height="32" rx="16" fill="white" fill-opacity="0.1"></rect><rect x="148.5" y="524.5" width="31" height="31" rx="15.5" stroke="white" stroke-opacity="0.1"></rect><rect x="1072" y="88" width="24" height="24" rx="12" fill="white" fill-opacity="0.01"></rect><rect x="1072.5" y="88.5" width="23" height="23" rx="11.5" stroke="white" stroke-opacity="0.1"></rect><rect x="392" y="528" width="24" height="24" rx="12" fill="white" fill-opacity="0.01"></rect><rect x="392.5" y="528.5" width="23" height="23" rx="11.5" stroke="white" stroke-opacity="0.1"></rect><g filter="url(#filter2_b_2046_93937)"><rect x="1104" y="280" width="160" height="160" fill="white" fill-opacity="0.01"></rect><rect x="1104" y="280" width="160" height="160" stroke="white" stroke-opacity="0.24" stroke-dasharray="4 4"></rect></g><rect x="1120" y="296" width="128" height="128" rx="8" fill="white" fill-opacity="0.1"></rect><rect x="1120.5" y="296.5" width="127" height="127" rx="7.5" stroke="white" stroke-opacity="0.1"></rect><rect x="1132" y="380" width="104" height="12" rx="6" fill="white" fill-opacity="0.1"></rect><rect x="1132.5" y="380.5" width="103" height="11" rx="5.5" stroke="white" stroke-opacity="0.1"></rect><rect x="1154" y="402" width="60" height="10" rx="5" fill="white" fill-opacity="0.1"></rect><rect x="1154.5" y="402.5" width="59" height="9" rx="4.5" stroke="white" stroke-opacity="0.1"></rect><rect x="1124" y="300" width="120" height="72" rx="4" fill="white" fill-opacity="0.1"></rect><rect x="1124.5" y="300.5" width="119" height="71" rx="3.5" stroke="white" stroke-opacity="0.1"></rect><g filter="url(#filter3_b_2046_93937)"><rect x="1104" y="120" width="160" height="80" fill="white" fill-opacity="0.01"></rect><rect x="1104.5" y="120.5" width="159" height="79" stroke="white" stroke-opacity="0.24" stroke-dasharray="4 4"></rect></g><rect x="1184" y="134" width="36" height="12" rx="6" fill="white" fill-opacity="0.1"></rect><rect x="1184.5" y="134.5" width="35" height="11" rx="5.5" stroke="white" stroke-opacity="0.1"></rect><rect x="1184" y="166" width="64" height="8" rx="4" fill="white" fill-opacity="0.1"></rect><rect x="1184.5" y="166.5" width="63" height="7" rx="3.5" stroke="white" stroke-opacity="0.1"></rect><rect x="1184" y="154" width="56" height="8" rx="4" fill="white" fill-opacity="0.1"></rect><rect x="1184.5" y="154.5" width="55" height="7" rx="3.5" stroke="white" stroke-opacity="0.1"></rect><rect x="1184" y="178" width="42" height="8" rx="4" fill="white" fill-opacity="0.1"></rect><rect x="1184.5" y="178.5" width="41" height="7" rx="3.5" stroke="white" stroke-opacity="0.1"></rect><rect x="1116" y="132" width="56" height="56" rx="28" fill="white" fill-opacity="0.05"></rect><rect x="1116.5" y="132.5" width="55" height="55" rx="27.5" stroke="url(#paint4_linear_2046_93937)" stroke-opacity="0.1"></rect><g style="mix-blend-mode:screen" opacity="0.3"><path d="M304 108V132M292 120H316" stroke="white"></path></g><g style="mix-blend-mode:screen" opacity="0.3"><path d="M304 428V452M292 440H316" stroke="white"></path></g><g style="mix-blend-mode:screen" opacity="0.3"><path d="M624 108V132M612 120H636" stroke="white"></path></g><g style="mix-blend-mode:screen" opacity="0.3"><path d="M624 428V452M612 440H636" stroke="white"></path></g><g style="mix-blend-mode:screen" opacity="0.3"><path d="M944 108V132M932 120H956" stroke="white"></path></g><g style="mix-blend-mode:screen" opacity="0.3"><path d="M944 428V452M932 440H956" stroke="white"></path></g><g style="mix-blend-mode:screen" opacity="0.3"><path d="M1264 108V132M1252 120H1276" stroke="white"></path></g><g style="mix-blend-mode:screen" opacity="0.3"><path d="M1264 428V452M1252 440H1276" stroke="white"></path></g><g style="mix-blend-mode:screen" opacity="0.3"><path d="M304 268V292M292 280H316" stroke="white"></path></g><g style="mix-blend-mode:screen" opacity="0.3"><path d="M304 588V612M292 600H316" stroke="white"></path></g><g style="mix-blend-mode:screen" opacity="0.3"><path d="M624 588V612M612 600H636" stroke="white"></path></g><g style="mix-blend-mode:screen" opacity="0.3"><path d="M944 588V612M932 600H956" stroke="white"></path></g><g style="mix-blend-mode:screen" opacity="0.3"><path d="M1264 268V292M1252 280H1276" stroke="white"></path></g><g style="mix-blend-mode:screen" opacity="0.3"><path d="M1264 588V612M1252 600H1276" stroke="white"></path></g><g style="mix-blend-mode:screen" opacity="0.3"><path d="M144 108V132M132 120H156" stroke="white"></path></g><g style="mix-blend-mode:screen" opacity="0.3"><path d="M144 428V452M132 440H156" stroke="white"></path></g><g style="mix-blend-mode:screen" opacity="0.3"><path d="M464 108V132M452 120H476" stroke="white"></path></g><g style="mix-blend-mode:screen" opacity="0.3"><path d="M464 428V452M452 440H476" stroke="white"></path></g><g style="mix-blend-mode:screen" opacity="0.3"><path d="M784 108V132M772 120H796" stroke="white"></path></g><g style="mix-blend-mode:screen" opacity="0.3"><path d="M784 428V452M772 440H796" stroke="white"></path></g><g style="mix-blend-mode:screen" opacity="0.3"><path d="M1104 108V132M1092 120H1116" stroke="white"></path></g><g style="mix-blend-mode:screen" opacity="0.3"><path d="M1104 428V452M1092 440H1116" stroke="white"></path></g><g style="mix-blend-mode:screen" opacity="0.3"><path d="M144 268V292M132 280H156" stroke="white"></path></g><g style="mix-blend-mode:screen" opacity="0.3"><path d="M144 588V612M132 600H156" stroke="white"></path></g><g style="mix-blend-mode:screen" opacity="0.3"><path d="M464 588V612M452 600H476" stroke="white"></path></g><g style="mix-blend-mode:screen" opacity="0.3"><path d="M784 588V612M772 600H796" stroke="white"></path></g><g style="mix-blend-mode:screen" opacity="0.3"><path d="M1104 268V292M1092 280H1116" stroke="white"></path></g><g style="mix-blend-mode:screen" opacity="0.3"><path d="M1104 588V612M1092 600H1116" stroke="white"></path></g><g style="mix-blend-mode:screen"><circle cx="384" cy="200" r="4" fill="white" fill-opacity="0.08"></circle><circle cx="384" cy="200" r="1" fill="white" fill-opacity="0.4"></circle></g><g style="mix-blend-mode:screen"><circle cx="384" cy="120" r="4" fill="white" fill-opacity="0.08"></circle><circle cx="384" cy="120" r="1" fill="white" fill-opacity="0.4"></circle></g><g style="mix-blend-mode:screen"><circle cx="344" cy="200" r="4" fill="white" fill-opacity="0.08"></circle><circle cx="344" cy="200" r="1" fill="white" fill-opacity="0.4"></circle></g><g style="mix-blend-mode:screen"><circle cx="344" cy="280" r="4" fill="white" fill-opacity="0.08"></circle><circle cx="344" cy="280" r="1" fill="white" fill-opacity="0.4"></circle></g><g style="mix-blend-mode:screen"><circle cx="384" cy="280" r="4" fill="white" fill-opacity="0.08"></circle><circle cx="384" cy="280" r="1" fill="white" fill-opacity="0.4"></circle></g><g style="mix-blend-mode:screen"><circle cx="384" cy="320" r="4" fill="white" fill-opacity="0.08"></circle><circle cx="384" cy="320" r="1" fill="white" fill-opacity="0.4"></circle></g><g style="mix-blend-mode:screen"><circle cx="424" cy="320" r="4" fill="white" fill-opacity="0.08"></circle><circle cx="424" cy="320" r="1" fill="white" fill-opacity="0.4"></circle></g><g style="mix-blend-mode:screen"><circle cx="424" cy="360" r="4" fill="white" fill-opacity="0.08"></circle><circle cx="424" cy="360" r="1" fill="white" fill-opacity="0.4"></circle></g><g style="mix-blend-mode:screen"><circle cx="4" cy="4" r="4" transform="matrix(-1 0 0 1 1028 196)" fill="white" fill-opacity="0.08"></circle><circle cx="1" cy="1" r="1" transform="matrix(-1 0 0 1 1025 199)" fill="white" fill-opacity="0.4"></circle></g><g style="mix-blend-mode:screen"><circle cx="4" cy="4" r="4" transform="matrix(-1 0 0 1 1028 116)" fill="white" fill-opacity="0.08"></circle><circle cx="1" cy="1" r="1" transform="matrix(-1 0 0 1 1025 119)" fill="white" fill-opacity="0.4"></circle></g><g style="mix-blend-mode:screen"><circle cx="4" cy="4" r="4" transform="matrix(-1 0 0 1 1068 196)" fill="white" fill-opacity="0.08"></circle><circle cx="1" cy="1" r="1" transform="matrix(-1 0 0 1 1065 199)" fill="white" fill-opacity="0.4"></circle></g><g style="mix-blend-mode:screen"><circle cx="4" cy="4" r="4" transform="matrix(-1 0 0 1 1068 276)" fill="white" fill-opacity="0.08"></circle><circle cx="1" cy="1" r="1" transform="matrix(-1 0 0 1 1065 279)" fill="white" fill-opacity="0.4"></circle></g><g style="mix-blend-mode:screen"><circle cx="4" cy="4" r="4" transform="matrix(-1 0 0 1 1028 276)" fill="white" fill-opacity="0.08"></circle><circle cx="1" cy="1" r="1" transform="matrix(-1 0 0 1 1025 279)" fill="white" fill-opacity="0.4"></circle></g><g style="mix-blend-mode:screen"><circle cx="4" cy="4" r="4" transform="matrix(-1 0 0 1 1028 316)" fill="white" fill-opacity="0.08"></circle><circle cx="1" cy="1" r="1" transform="matrix(-1 0 0 1 1025 319)" fill="white" fill-opacity="0.4"></circle></g><g style="mix-blend-mode:screen"><circle cx="4" cy="4" r="4" transform="matrix(-1 0 0 1 988 316)" fill="white" fill-opacity="0.08"></circle><circle cx="1" cy="1" r="1" transform="matrix(-1 0 0 1 985 319)" fill="white" fill-opacity="0.4"></circle></g><g style="mix-blend-mode:screen"><circle cx="4" cy="4" r="4" transform="matrix(-1 0 0 1 988 356)" fill="white" fill-opacity="0.08"></circle><circle cx="1" cy="1" r="1" transform="matrix(-1 0 0 1 985 359)" fill="white" fill-opacity="0.4"></circle></g><defs><filter id="filter0_b_2046_93937" x="135.5" y="111.5" width="177" height="337" filterUnits="userSpaceOnUse" color-interpolation-filters="sRGB"><feGaussianBlur stdDeviation="4"></feGaussianBlur></filter><filter id="filter1_b_2046_93937" x="135.5" y="511.5" width="177" height="57" filterUnits="userSpaceOnUse" color-interpolation-filters="sRGB"><feGaussianBlur stdDeviation="4"></feGaussianBlur></filter><filter id="filter2_b_2046_93937" x="1095.5" y="271.5" width="177" height="177" filterUnits="userSpaceOnUse" color-interpolation-filters="sRGB"><feGaussianBlur stdDeviation="4"></feGaussianBlur></filter><filter id="filter3_b_2046_93937" x="1096" y="112" width="176" height="96" filterUnits="userSpaceOnUse" color-interpolation-filters="sRGB"><feGaussianBlur stdDeviation="4"></feGaussianBlur></filter><radialGradient id="paint0_radial_2046_93937" cx="0" cy="0" r="1" gradientUnits="userSpaceOnUse" gradientTransform="translate(704 380) rotate(90) scale(380 710.615)"><stop offset="0.665789" stop-color="white"></stop><stop offset="1" stop-color="white" stop-opacity="0.2"></stop></radialGradient><linearGradient id="paint1_linear_2046_93937" x1="224" y1="280" x2="224" y2="320" gradientUnits="userSpaceOnUse"><stop stop-color="white"></stop><stop offset="1" stop-color="white" stop-opacity="0"></stop></linearGradient><linearGradient id="paint2_linear_2046_93937" x1="224" y1="331" x2="224" y2="424" gradientUnits="userSpaceOnUse"><stop stop-color="white"></stop><stop offset="1" stop-color="white" stop-opacity="0"></stop></linearGradient><linearGradient id="paint3_linear_2046_93937" x1="224" y1="144" x2="224" y2="220" gradientUnits="userSpaceOnUse"><stop stop-color="white"></stop><stop offset="1" stop-color="white" stop-opacity="0"></stop></linearGradient><linearGradient id="paint4_linear_2046_93937" x1="1144" y1="132" x2="1144" y2="188" gradientUnits="userSpaceOnUse"><stop stop-color="white"></stop><stop offset="1" stop-color="white" stop-opacity="0"></stop></linearGradient></defs></svg>