<svg xmlns="http://www.w3.org/2000/svg" width="1408" height="623" viewBox="0 0 1408 623" fill="none"><path d="M-136 -178H-176V-138M-136 -178V-138M-136 -178H-96M-136 -138H-176M-136 -138V-98M-136 -138H-96M-176 -138V-98M-136 -98H-176M-136 -98V-58M-136 -98H-96M-176 -98V-58M-136 -58H-176M-136 -58V-18M-136 -58H-96M-176 -58V-18M-136 -18H-176M-136 -18V22M-136 -18H-96M-176 -18V22M-136 22H-176M-136 22V62M-136 22H-96M-176 22V62M-136 62H-176M-136 62V102M-136 62H-96M-176 62V102M-136 102H-176M-136 102V142M-136 102H-96M-176 102V142M-136 142H-176M-136 142V182M-136 142H-96M-176 142V182M-136 182H-176M-136 182V222M-136 182H-96M-176 182V222M-136 222H-176M-136 222V262M-136 222H-96M-176 222V262M-136 262H-176M-136 262V302M-136 262H-96M-176 262V302M-136 302H-176M-136 302V342M-136 302H-96M-176 302V342M-136 342H-176M-136 342V382M-136 342H-96M-176 342V382M-136 382H-176M-136 382V422M-136 382H-96M-176 382V422M-136 422H-176M-136 422V462M-136 422H-96M-176 422V462M-136 462H-176M-136 462V502M-136 462H-96M-176 462V502M-136 502H-176M-136 502V542M-136 502H-96M-176 502V542M-136 542H-176M-136 542V582M-136 542H-96M-176 542V582M-136 582H-176M-136 582V622M-136 582H-96M-176 582V622H-136M-136 622H-96M-96 -178V-138M-96 -178H-56M-96 -138V-98M-96 -138H-56M-96 -98V-58M-96 -98H-56M-96 -58V-18M-96 -58H-56M-96 -18V22M-96 -18H-56M-96 22V62M-96 22H-56M-96 62V102M-96 62H-56M-96 102V142M-96 102H-56M-96 142V182M-96 142H-56M-96 182V222M-96 182H-56M-96 222V262M-96 222H-56M-96 262V302M-96 262H-56M-96 302V342M-96 302H-56M-96 342V382M-96 342H-56M-96 382V422M-96 382H-56M-96 422V462M-96 422H-56M-96 462V502M-96 462H-56M-96 502V542M-96 502H-56M-96 542V582M-96 542H-56M-96 582V622M-96 582H-56M-96 622H-56M-56 -178V-138M-56 -178H-16M-56 -138V-98M-56 -138H-16M-56 -98V-58M-56 -98H-16M-56 -58V-18M-56 -58H-16M-56 -18V22M-56 -18H-16M-56 22V62M-56 22H-16M-56 62V102M-56 62H-16M-56 102V142M-56 102H-16M-56 142V182M-56 142H-16M-56 182V222M-56 182H-16M-56 222V262M-56 222H-16M-56 262V302M-56 262H-16M-56 302V342M-56 302H-16M-56 342V382M-56 342H-16M-56 382V422M-56 382H-16M-56 422V462M-56 422H-16M-56 462V502M-56 462H-16M-56 502V542M-56 502H-16M-56 542V582M-56 542H-16M-56 582V622M-56 582H-16M-56 622H-16M-16 -178V-138M-16 -178H24M-16 -138V-98M-16 -138H24M-16 -98V-58M-16 -98H24M-16 -58V-18M-16 -58H24M-16 -18V22M-16 -18H24M-16 22V62M-16 22H24M-16 62V102M-16 62H24M-16 102V142M-16 102H24M-16 142V182M-16 142H24M-16 182V222M-16 182H24M-16 222V262M-16 222H24M-16 262V302M-16 262H24M-16 302V342M-16 302H24M-16 342V382M-16 342H24M-16 382V422M-16 382H24M-16 422V462M-16 422H24M-16 462V502M-16 462H24M-16 502V542M-16 502H24M-16 542V582M-16 542H24M-16 582V622M-16 582H24M-16 622H24M24 -178V-138M24 -178H64M24 -138V-98M24 -138H64M24 -98V-58M24 -98H64M24 -58V-18M24 -58H64M24 -18V22M24 -18H64M24 22V62M24 22H64M24 62V102M24 62H64M24 102V142M24 102H64M24 142V182M24 142H64M24 182V222M24 182H64M24 222V262M24 222H64M24 262V302M24 262H64M24 302V342M24 302H64M24 342V382M24 342H64M24 382V422M24 382H64M24 422V462M24 422H64M24 462V502M24 462H64M24 502V542M24 502H64M24 542V582M24 542H64M24 582V622M24 582H64M24 622H64M64 -178V-138M64 -178H104M64 -138V-98M64 -138H104M64 -98V-58M64 -98H104M64 -58V-18M64 -58H104M64 -18V22M64 -18H104M64 22V62M64 22H104M64 62V102M64 62H104M64 102V142M64 102H104M64 142V182M64 142H104M64 182V222M64 182H104M64 222V262M64 222H104M64 262V302M64 262H104M64 302V342M64 302H104M64 342V382M64 342H104M64 382V422M64 382H104M64 422V462M64 422H104M64 462V502M64 462H104M64 502V542M64 502H104M64 542V582M64 542H104M64 582V622M64 582H104M64 622H104M104 -178V-138M104 -178H144M104 -138V-98M104 -138H144M104 -98V-58M104 -98H144M104 -58V-18M104 -58H144M104 -18V22M104 -18H144M104 22V62M104 22H144M104 62V102M104 62H144M104 102V142M104 102H144M104 142V182M104 142H144M104 182V222M104 182H144M104 222V262M104 222H144M104 262V302M104 262H144M104 302V342M104 302H144M104 342V382M104 342H144M104 382V422M104 382H144M104 422V462M104 422H144M104 462V502M104 462H144M104 502V542M104 502H144M104 542V582M104 542H144M104 582V622M104 582H144M104 622H144M144 -178V-138M144 -178H184M144 -138V-98M144 -138H184M144 -98V-58M144 -98H184M144 -58V-18M144 -58H184M144 -18V22M144 -18H184M144 22V62M144 22H184M144 62V102M144 62H184M144 102V142M144 102H184M144 142V182M144 142H184M144 182V222M144 182H184M144 222V262M144 222H184M144 262V302M144 262H184M144 302V342M144 302H184M144 342V382M144 342H184M144 382V422M144 382H184M144 422V462M144 422H184M144 462V502M144 462H184M144 502V542M144 502H184M144 542V582M144 542H184M144 582V622M144 582H184M144 622H184M184 -178V-138M184 -178H224M184 -138V-98M184 -138H224M184 -98V-58M184 -98H224M184 -58V-18M184 -58H224M184 -18V22M184 -18H224M184 22V62M184 22H224M184 62V102M184 62H224M184 102V142M184 102H224M184 142V182M184 142H224M184 182V222M184 182H224M184 222V262M184 222H224M184 262V302M184 262H224M184 302V342M184 302H224M184 342V382M184 342H224M184 382V422M184 382H224M184 422V462M184 422H224M184 462V502M184 462H224M184 502V542M184 502H224M184 542V582M184 542H224M184 582V622M184 582H224M184 622H224M224 -178V-138M224 -178H264M224 -138V-98M224 -138H264M224 -98V-58M224 -98H264M224 -58V-18M224 -58H264M224 -18V22M224 -18H264M224 22V62M224 22H264M224 62V102M224 62H264M224 102V142M224 102H264M224 142V182M224 142H264M224 182V222M224 182H264M224 222V262M224 222H264M224 262V302M224 262H264M224 302V342M224 302H264M224 342V382M224 342H264M224 382V422M224 382H264M224 422V462M224 422H264M224 462V502M224 462H264M224 502V542M224 502H264M224 542V582M224 542H264M224 582V622M224 582H264M224 622H264M264 -178V-138M264 -178H304M264 -138V-98M264 -138H304M264 -98V-58M264 -98H304M264 -58V-18M264 -58H304M264 -18V22M264 -18H304M264 22V62M264 22H304M264 62V102M264 62H304M264 102V142M264 102H304M264 142V182M264 142H304M264 182V222M264 182H304M264 222V262M264 222H304M264 262V302M264 262H304M264 302V342M264 302H304M264 342V382M264 342H304M264 382V422M264 382H304M264 422V462M264 422H304M264 462V502M264 462H304M264 502V542M264 502H304M264 542V582M264 542H304M264 582V622M264 582H304M264 622H304M304 -178V-138M304 -178H344M304 -138V-98M304 -138H344M304 -98V-58M304 -98H344M304 -58V-18M304 -58H344M304 -18V22M304 -18H344M304 22V62M304 22H344M304 62V102M304 62H344M304 102V142M304 102H344M304 142V182M304 142H344M304 182V222M304 182H344M304 222V262M304 222H344M304 262V302M304 262H344M304 302V342M304 302H344M304 342V382M304 342H344M304 382V422M304 382H344M304 422V462M304 422H344M304 462V502M304 462H344M304 502V542M304 502H344M304 542V582M304 542H344M304 582V622M304 582H344M304 622H344M344 -178V-138M344 -178H384M344 -138V-98M344 -138H384M344 -98V-58M344 -98H384M344 -58V-18M344 -58H384M344 -18V22M344 -18H384M344 22V62M344 22H384M344 62V102M344 62H384M344 102V142M344 102H384M344 142V182M344 142H384M344 182V222M344 182H384M344 222V262M344 222H384M344 262V302M344 262H384M344 302V342M344 302H384M344 342V382M344 342H384M344 382V422M344 382H384M344 422V462M344 422H384M344 462V502M344 462H384M344 502V542M344 502H384M344 542V582M344 542H384M344 582V622M344 582H384M344 622H384M384 -178V-138M384 -178H424M384 -138V-98M384 -138H424M384 -98V-58M384 -98H424M384 -58V-18M384 -58H424M384 -18V22M384 -18H424M384 22V62M384 22H424M384 62V102M384 62H424M384 102V142M384 102H424M384 142V182M384 142H424M384 182V222M384 182H424M384 222V262M384 222H424M384 262V302M384 262H424M384 302V342M384 302H424M384 342V382M384 342H424M384 382V422M384 382H424M384 422V462M384 422H424M384 462V502M384 462H424M384 502V542M384 502H424M384 542V582M384 542H424M384 582V622M384 582H424M384 622H424M424 -178V-138M424 -178H464M424 -138V-98M424 -138H464M424 -98V-58M424 -98H464M424 -58V-18M424 -58H464M424 -18V22M424 -18H464M424 22V62M424 22H464M424 62V102M424 62H464M424 102V142M424 102H464M424 142V182M424 142H464M424 182V222M424 182H464M424 222V262M424 222H464M424 262V302M424 262H464M424 302V342M424 302H464M424 342V382M424 342H464M424 382V422M424 382H464M424 422V462M424 422H464M424 462V502M424 462H464M424 502V542M424 502H464M424 542V582M424 542H464M424 582V622M424 582H464M424 622H464M464 -178V-138M464 -178H504M464 -138V-98M464 -138H504M464 -98V-58M464 -98H504M464 -58V-18M464 -58H504M464 -18V22M464 -18H504M464 22V62M464 22H504M464 62V102M464 62H504M464 102V142M464 102H504M464 142V182M464 142H504M464 182V222M464 182H504M464 222V262M464 222H504M464 262V302M464 262H504M464 302V342M464 302H504M464 342V382M464 342H504M464 382V422M464 382H504M464 422V462M464 422H504M464 462V502M464 462H504M464 502V542M464 502H504M464 542V582M464 542H504M464 582V622M464 582H504M464 622H504M504 -178V-138M504 -178H544M504 -138V-98M504 -138H544M504 -98V-58M504 -98H544M504 -58V-18M504 -58H544M504 -18V22M504 -18H544M504 22V62M504 22H544M504 62V102M504 62H544M504 102V142M504 102H544M504 142V182M504 142H544M504 182V222M504 182H544M504 222V262M504 222H544M504 262V302M504 262H544M504 302V342M504 302H544M504 342V382M504 342H544M504 382V422M504 382H544M504 422V462M504 422H544M504 462V502M504 462H544M504 502V542M504 502H544M504 542V582M504 542H544M504 582V622M504 582H544M504 622H544M544 -178V-138M544 -178H584M544 -138V-98M544 -138H584M544 -98V-58M544 -98H584M544 -58V-18M544 -58H584M544 -18V22M544 -18H584M544 22V62M544 22H584M544 62V102M544 62H584M544 102V142M544 102H584M544 142V182M544 142H584M544 182V222M544 182H584M544 222V262M544 222H584M544 262V302M544 262H584M544 302V342M544 302H584M544 342V382M544 342H584M544 382V422M544 382H584M544 422V462M544 422H584M544 462V502M544 462H584M544 502V542M544 502H584M544 542V582M544 542H584M544 582V622M544 582H584M544 622H584M584 -178V-138M584 -178H624M584 -138V-98M584 -138H624M584 -98V-58M584 -98H624M584 -58V-18M584 -58H624M584 -18V22M584 -18H624M584 22V62M584 22H624M584 62V102M584 62H624M584 102V142M584 102H624M584 142V182M584 142H624M584 182V222M584 182H624M584 222V262M584 222H624M584 262V302M584 262H624M584 302V342M584 302H624M584 342V382M584 342H624M584 382V422M584 382H624M584 422V462M584 422H624M584 462V502M584 462H624M584 502V542M584 502H624M584 542V582M584 542H624M584 582V622M584 582H624M584 622H624M624 -178V-138M624 -178H664M624 -138V-98M624 -138H664M624 -98V-58M624 -98H664M624 -58V-18M624 -58H664M624 -18V22M624 -18H664M624 22V62M624 22H664M624 62V102M624 62H664M624 102V142M624 102H664M624 142V182M624 142H664M624 182V222M624 182H664M624 222V262M624 222H664M624 262V302M624 262H664M624 302V342M624 302H664M624 342V382M624 342H664M624 382V422M624 382H664M624 422V462M624 422H664M624 462V502M624 462H664M624 502V542M624 502H664M624 542V582M624 542H664M624 582V622M624 582H664M624 622H664M664 -178V-138M664 -178H704M664 -138V-98M664 -138H704M664 -98V-58M664 -98H704M664 -58V-18M664 -58H704M664 -18V22M664 -18H704M664 22V62M664 22H704M664 62V102M664 62H704M664 102V142M664 102H704M664 142V182M664 142H704M664 182V222M664 182H704M664 222V262M664 222H704M664 262V302M664 262H704M664 302V342M664 302H704M664 342V382M664 342H704M664 382V422M664 382H704M664 422V462M664 422H704M664 462V502M664 462H704M664 502V542M664 502H704M664 542V582M664 542H704M664 582V622M664 582H704M664 622H704M704 -178V-138M704 -178H744M704 -138V-98M704 -138H744M704 -98V-58M704 -98H744M704 -58V-18M704 -58H744M704 -18V22M704 -18H744M704 22V62M704 22H744M704 62V102M704 62H744M704 102V142M704 102H744M704 142V182M704 142H744M704 182V222M704 182H744M704 222V262M704 222H744M704 262V302M704 262H744M704 302V342M704 302H744M704 342V382M704 342H744M704 382V422M704 382H744M704 422V462M704 422H744M704 462V502M704 462H744M704 502V542M704 502H744M704 542V582M704 542H744M704 582V622M704 582H744M704 622H744M744 -178V-138M744 -178H784M744 -138V-98M744 -138H784M744 -98V-58M744 -98H784M744 -58V-18M744 -58H784M744 -18V22M744 -18H784M744 22V62M744 22H784M744 62V102M744 62H784M744 102V142M744 102H784M744 142V182M744 142H784M744 182V222M744 182H784M744 222V262M744 222H784M744 262V302M744 262H784M744 302V342M744 302H784M744 342V382M744 342H784M744 382V422M744 382H784M744 422V462M744 422H784M744 462V502M744 462H784M744 502V542M744 502H784M744 542V582M744 542H784M744 582V622M744 582H784M744 622H784M784 -178V-138M784 -178H824M784 -138V-98M784 -138H824M784 -98V-58M784 -98H824M784 -58V-18M784 -58H824M784 -18V22M784 -18H824M784 22V62M784 22H824M784 62V102M784 62H824M784 102V142M784 102H824M784 142V182M784 142H824M784 182V222M784 182H824M784 222V262M784 222H824M784 262V302M784 262H824M784 302V342M784 302H824M784 342V382M784 342H824M784 382V422M784 382H824M784 422V462M784 422H824M784 462V502M784 462H824M784 502V542M784 502H824M784 542V582M784 542H824M784 582V622M784 582H824M784 622H824M824 -178V-138M824 -178H864M824 -138V-98M824 -138H864M824 -98V-58M824 -98H864M824 -58V-18M824 -58H864M824 -18V22M824 -18H864M824 22V62M824 22H864M824 62V102M824 62H864M824 102V142M824 102H864M824 142V182M824 142H864M824 182V222M824 182H864M824 222V262M824 222H864M824 262V302M824 262H864M824 302V342M824 302H864M824 342V382M824 342H864M824 382V422M824 382H864M824 422V462M824 422H864M824 462V502M824 462H864M824 502V542M824 502H864M824 542V582M824 542H864M824 582V622M824 582H864M824 622H864M864 -178V-138M864 -178H904M864 -138V-98M864 -138H904M864 -98V-58M864 -98H904M864 -58V-18M864 -58H904M864 -18V22M864 -18H904M864 22V62M864 22H904M864 62V102M864 62H904M864 102V142M864 102H904M864 142V182M864 142H904M864 182V222M864 182H904M864 222V262M864 222H904M864 262V302M864 262H904M864 302V342M864 302H904M864 342V382M864 342H904M864 382V422M864 382H904M864 422V462M864 422H904M864 462V502M864 462H904M864 502V542M864 502H904M864 542V582M864 542H904M864 582V622M864 582H904M864 622H904M904 -178V-138M904 -178H944M904 -138V-98M904 -138H944M904 -98V-58M904 -98H944M904 -58V-18M904 -58H944M904 -18V22M904 -18H944M904 22V62M904 22H944M904 62V102M904 62H944M904 102V142M904 102H944M904 142V182M904 142H944M904 182V222M904 182H944M904 222V262M904 222H944M904 262V302M904 262H944M904 302V342M904 302H944M904 342V382M904 342H944M904 382V422M904 382H944M904 422V462M904 422H944M904 462V502M904 462H944M904 502V542M904 502H944M904 542V582M904 542H944M904 582V622M904 582H944M904 622H944M944 -178V-138M944 -178H984M944 -138V-98M944 -138H984M944 -98V-58M944 -98H984M944 -58V-18M944 -58H984M944 -18V22M944 -18H984M944 22V62M944 22H984M944 62V102M944 62H984M944 102V142M944 102H984M944 142V182M944 142H984M944 182V222M944 182H984M944 222V262M944 222H984M944 262V302M944 262H984M944 302V342M944 302H984M944 342V382M944 342H984M944 382V422M944 382H984M944 422V462M944 422H984M944 462V502M944 462H984M944 502V542M944 502H984M944 542V582M944 542H984M944 582V622M944 582H984M944 622H984M984 -178V-138M984 -178H1024M984 -138V-98M984 -138H1024M984 -98V-58M984 -98H1024M984 -58V-18M984 -58H1024M984 -18V22M984 -18H1024M984 22V62M984 22H1024M984 62V102M984 62H1024M984 102V142M984 102H1024M984 142V182M984 142H1024M984 182V222M984 182H1024M984 222V262M984 222H1024M984 262V302M984 262H1024M984 302V342M984 302H1024M984 342V382M984 342H1024M984 382V422M984 382H1024M984 422V462M984 422H1024M984 462V502M984 462H1024M984 502V542M984 502H1024M984 542V582M984 542H1024M984 582V622M984 582H1024M984 622H1024M1024 -178V-138M1024 -178H1064M1024 -138V-98M1024 -138H1064M1024 -98V-58M1024 -98H1064M1024 -58V-18M1024 -58H1064M1024 -18V22M1024 -18H1064M1024 22V62M1024 22H1064M1024 62V102M1024 62H1064M1024 102V142M1024 102H1064M1024 142V182M1024 142H1064M1024 182V222M1024 182H1064M1024 222V262M1024 222H1064M1024 262V302M1024 262H1064M1024 302V342M1024 302H1064M1024 342V382M1024 342H1064M1024 382V422M1024 382H1064M1024 422V462M1024 422H1064M1024 462V502M1024 462H1064M1024 502V542M1024 502H1064M1024 542V582M1024 542H1064M1024 582V622M1024 582H1064M1024 622H1064M1064 -178V-138M1064 -178H1104M1064 -138V-98M1064 -138H1104M1064 -98V-58M1064 -98H1104M1064 -58V-18M1064 -58H1104M1064 -18V22M1064 -18H1104M1064 22V62M1064 22H1104M1064 62V102M1064 62H1104M1064 102V142M1064 102H1104M1064 142V182M1064 142H1104M1064 182V222M1064 182H1104M1064 222V262M1064 222H1104M1064 262V302M1064 262H1104M1064 302V342M1064 302H1104M1064 342V382M1064 342H1104M1064 382V422M1064 382H1104M1064 422V462M1064 422H1104M1064 462V502M1064 462H1104M1064 502V542M1064 502H1104M1064 542V582M1064 542H1104M1064 582V622M1064 582H1104M1064 622H1104M1104 -178V-138M1104 -178H1144M1104 -138V-98M1104 -138H1144M1104 -98V-58M1104 -98H1144M1104 -58V-18M1104 -58H1144M1104 -18V22M1104 -18H1144M1104 22V62M1104 22H1144M1104 62V102M1104 62H1144M1104 102V142M1104 102H1144M1104 142V182M1104 142H1144M1104 182V222M1104 182H1144M1104 222V262M1104 222H1144M1104 262V302M1104 262H1144M1104 302V342M1104 302H1144M1104 342V382M1104 342H1144M1104 382V422M1104 382H1144M1104 422V462M1104 422H1144M1104 462V502M1104 462H1144M1104 502V542M1104 502H1144M1104 542V582M1104 542H1144M1104 582V622M1104 582H1144M1104 622H1144M1144 -178V-138M1144 -178H1184M1144 -138V-98M1144 -138H1184M1144 -98V-58M1144 -98H1184M1144 -58V-18M1144 -58H1184M1144 -18V22M1144 -18H1184M1144 22V62M1144 22H1184M1144 62V102M1144 62H1184M1144 102V142M1144 102H1184M1144 142V182M1144 142H1184M1144 182V222M1144 182H1184M1144 222V262M1144 222H1184M1144 262V302M1144 262H1184M1144 302V342M1144 302H1184M1144 342V382M1144 342H1184M1144 382V422M1144 382H1184M1144 422V462M1144 422H1184M1144 462V502M1144 462H1184M1144 502V542M1144 502H1184M1144 542V582M1144 542H1184M1144 582V622M1144 582H1184M1144 622H1184M1184 -178V-138M1184 -178H1224M1184 -138V-98M1184 -138H1224M1184 -98V-58M1184 -98H1224M1184 -58V-18M1184 -58H1224M1184 -18V22M1184 -18H1224M1184 22V62M1184 22H1224M1184 62V102M1184 62H1224M1184 102V142M1184 102H1224M1184 142V182M1184 142H1224M1184 182V222M1184 182H1224M1184 222V262M1184 222H1224M1184 262V302M1184 262H1224M1184 302V342M1184 302H1224M1184 342V382M1184 342H1224M1184 382V422M1184 382H1224M1184 422V462M1184 422H1224M1184 462V502M1184 462H1224M1184 502V542M1184 502H1224M1184 542V582M1184 542H1224M1184 582V622M1184 582H1224M1184 622H1224M1224 -178V-138M1224 -178H1264M1224 -138V-98M1224 -138H1264M1224 -98V-58M1224 -98H1264M1224 -58V-18M1224 -58H1264M1224 -18V22M1224 -18H1264M1224 22V62M1224 22H1264M1224 62V102M1224 62H1264M1224 102V142M1224 102H1264M1224 142V182M1224 142H1264M1224 182V222M1224 182H1264M1224 222V262M1224 222H1264M1224 262V302M1224 262H1264M1224 302V342M1224 302H1264M1224 342V382M1224 342H1264M1224 382V422M1224 382H1264M1224 422V462M1224 422H1264M1224 462V502M1224 462H1264M1224 502V542M1224 502H1264M1224 542V582M1224 542H1264M1224 582V622M1224 582H1264M1224 622H1264M1264 -178V-138M1264 -178H1304M1264 -138V-98M1264 -138H1304M1264 -98V-58M1264 -98H1304M1264 -58V-18M1264 -58H1304M1264 -18V22M1264 -18H1304M1264 22V62M1264 22H1304M1264 62V102M1264 62H1304M1264 102V142M1264 102H1304M1264 142V182M1264 142H1304M1264 182V222M1264 182H1304M1264 222V262M1264 222H1304M1264 262V302M1264 262H1304M1264 302V342M1264 302H1304M1264 342V382M1264 342H1304M1264 382V422M1264 382H1304M1264 422V462M1264 422H1304M1264 462V502M1264 462H1304M1264 502V542M1264 502H1304M1264 542V582M1264 542H1304M1264 582V622M1264 582H1304M1264 622H1304M1304 -178V-138M1304 -178H1344M1304 -138V-98M1304 -138H1344M1304 -98V-58M1304 -98H1344M1304 -58V-18M1304 -58H1344M1304 -18V22M1304 -18H1344M1304 22V62M1304 22H1344M1304 62V102M1304 62H1344M1304 102V142M1304 102H1344M1304 142V182M1304 142H1344M1304 182V222M1304 182H1344M1304 222V262M1304 222H1344M1304 262V302M1304 262H1344M1304 302V342M1304 302H1344M1304 342V382M1304 342H1344M1304 382V422M1304 382H1344M1304 422V462M1304 422H1344M1304 462V502M1304 462H1344M1304 502V542M1304 502H1344M1304 542V582M1304 542H1344M1304 582V622M1304 582H1344M1304 622H1344M1344 -178V-138M1344 -178H1384M1344 -138V-98M1344 -138H1384M1344 -98V-58M1344 -98H1384M1344 -58V-18M1344 -58H1384M1344 -18V22M1344 -18H1384M1344 22V62M1344 22H1384M1344 62V102M1344 62H1384M1344 102V142M1344 102H1384M1344 142V182M1344 142H1384M1344 182V222M1344 182H1384M1344 222V262M1344 222H1384M1344 262V302M1344 262H1384M1344 302V342M1344 302H1384M1344 342V382M1344 342H1384M1344 382V422M1344 382H1384M1344 422V462M1344 422H1384M1344 462V502M1344 462H1384M1344 502V542M1344 502H1384M1344 542V582M1344 542H1384M1344 582V622M1344 582H1384M1344 622H1384M1384 -178V-138M1384 -178H1424M1384 -138V-98M1384 -138H1424M1384 -98V-58M1384 -98H1424M1384 -58V-18M1384 -58H1424M1384 -18V22M1384 -18H1424M1384 22V62M1384 22H1424M1384 62V102M1384 62H1424M1384 102V142M1384 102H1424M1384 142V182M1384 142H1424M1384 182V222M1384 182H1424M1384 222V262M1384 222H1424M1384 262V302M1384 262H1424M1384 302V342M1384 302H1424M1384 342V382M1384 342H1424M1384 382V422M1384 382H1424M1384 422V462M1384 422H1424M1384 462V502M1384 462H1424M1384 502V542M1384 502H1424M1384 542V582M1384 542H1424M1384 582V622M1384 582H1424M1384 622H1424M1424 -178V-138M1424 -178H1464M1424 -138V-98M1424 -138H1464M1424 -98V-58M1424 -98H1464M1424 -58V-18M1424 -58H1464M1424 -18V22M1424 -18H1464M1424 22V62M1424 22H1464M1424 62V102M1424 62H1464M1424 102V142M1424 102H1464M1424 142V182M1424 142H1464M1424 182V222M1424 182H1464M1424 222V262M1424 222H1464M1424 262V302M1424 262H1464M1424 302V342M1424 302H1464M1424 342V382M1424 342H1464M1424 382V422M1424 382H1464M1424 422V462M1424 422H1464M1424 462V502M1424 462H1464M1424 502V542M1424 502H1464M1424 542V582M1424 542H1464M1424 582V622M1424 582H1464M1424 622H1464M1464 -178V-138M1464 -178H1504M1464 -138V-98M1464 -138H1504M1464 -98V-58M1464 -98H1504M1464 -58V-18M1464 -58H1504M1464 -18V22M1464 -18H1504M1464 22V62M1464 22H1504M1464 62V102M1464 62H1504M1464 102V142M1464 102H1504M1464 142V182M1464 142H1504M1464 182V222M1464 182H1504M1464 222V262M1464 222H1504M1464 262V302M1464 262H1504M1464 302V342M1464 302H1504M1464 342V382M1464 342H1504M1464 382V422M1464 382H1504M1464 422V462M1464 422H1504M1464 462V502M1464 462H1504M1464 502V542M1464 502H1504M1464 542V582M1464 542H1504M1464 582V622M1464 582H1504M1464 622H1504M1504 -178V-138M1504 -178H1544M1504 -138V-98M1504 -138H1544M1504 -98V-58M1504 -98H1544M1504 -58V-18M1504 -58H1544M1504 -18V22M1504 -18H1544M1504 22V62M1504 22H1544M1504 62V102M1504 62H1544M1504 102V142M1504 102H1544M1504 142V182M1504 142H1544M1504 182V222M1504 182H1544M1504 222V262M1504 222H1544M1504 262V302M1504 262H1544M1504 302V342M1504 302H1544M1504 342V382M1504 342H1544M1504 382V422M1504 382H1544M1504 422V462M1504 422H1544M1504 462V502M1504 462H1544M1504 502V542M1504 502H1544M1504 542V582M1504 542H1544M1504 582V622M1504 582H1544M1504 622H1544M1544 -178V-138M1544 -178H1584V-138M1544 -138V-98M1544 -138H1584M1544 -98V-58M1544 -98H1584M1544 -58V-18M1544 -58H1584M1544 -18V22M1544 -18H1584M1544 22V62M1544 22H1584M1544 62V102M1544 62H1584M1544 102V142M1544 102H1584M1544 142V182M1544 142H1584M1544 182V222M1544 182H1584M1544 222V262M1544 222H1584M1544 262V302M1544 262H1584M1544 302V342M1544 302H1584M1544 342V382M1544 342H1584M1544 382V422M1544 382H1584M1544 422V462M1544 422H1584M1544 462V502M1544 462H1584M1544 502V542M1544 502H1584M1544 542V582M1544 542H1584M1544 582V622M1544 582H1584M1544 622H1584V582M1584 -138V-98M1584 -98V-58M1584 -58V-18M1584 -18V22M1584 22V62M1584 62V102M1584 102V142M1584 142V182M1584 182V222M1584 222V262M1584 262V302M1584 302V342M1584 342V382M1584 382V422M1584 422V462M1584 462V502M1584 502V542M1584 542V582" stroke="url(#paint0_radial_4132_13077)" stroke-opacity="0.1" stroke-width="0.5"></path><g style="mix-blend-mode:multiply"><path d="M265 342C265 342.552 264.552 343 264 343C263.448 343 263 342.552 263 342C263 341.448 263.448 341 264 341C264.552 341 265 341.448 265 342Z" fill="#7D95FF" fill-opacity="0.2"></path><path d="M265 382C265 382.552 264.552 383 264 383C263.448 383 263 382.552 263 382C263 381.448 263.448 381 264 381C264.552 381 265 381.448 265 382Z" fill="#7D95FF" fill-opacity="0.2"></path><path d="M265 422C265 422.552 264.552 423 264 423C263.448 423 263 422.552 263 422C263 421.448 263.448 421 264 421C264.552 421 265 421.448 265 422Z" fill="#7D95FF" fill-opacity="0.2"></path><path d="M265 462C265 462.552 264.552 463 264 463C263.448 463 263 462.552 263 462C263 461.448 263.448 461 264 461C264.552 461 265 461.448 265 462Z" fill="#7D95FF" fill-opacity="0.2"></path><path d="M225 342C225 342.552 224.552 343 224 343C223.448 343 223 342.552 223 342C223 341.448 223.448 341 224 341C224.552 341 225 341.448 225 342Z" fill="#7D95FF" fill-opacity="0.2"></path><path d="M225 382C225 382.552 224.552 383 224 383C223.448 383 223 382.552 223 382C223 381.448 223.448 381 224 381C224.552 381 225 381.448 225 382Z" fill="#7D95FF" fill-opacity="0.2"></path><path d="M225 422C225 422.552 224.552 423 224 423C223.448 423 223 422.552 223 422C223 421.448 223.448 421 224 421C224.552 421 225 421.448 225 422Z" fill="#7D95FF" fill-opacity="0.2"></path><path d="M225 462C225 462.552 224.552 463 224 463C223.448 463 223 462.552 223 462C223 461.448 223.448 461 224 461C224.552 461 225 461.448 225 462Z" fill="#7D95FF" fill-opacity="0.2"></path><path d="M185 342C185 342.552 184.552 343 184 343C183.448 343 183 342.552 183 342C183 341.448 183.448 341 184 341C184.552 341 185 341.448 185 342Z" fill="#7D95FF" fill-opacity="0.2"></path><path d="M185 382C185 382.552 184.552 383 184 383C183.448 383 183 382.552 183 382C183 381.448 183.448 381 184 381C184.552 381 185 381.448 185 382Z" fill="#7D95FF" fill-opacity="0.2"></path><path d="M185 422C185 422.552 184.552 423 184 423C183.448 423 183 422.552 183 422C183 421.448 183.448 421 184 421C184.552 421 185 421.448 185 422Z" fill="#7D95FF" fill-opacity="0.2"></path><path d="M145 342C145 342.552 144.552 343 144 343C143.448 343 143 342.552 143 342C143 341.448 143.448 341 144 341C144.552 341 145 341.448 145 342Z" fill="#7D95FF" fill-opacity="0.2"></path><path d="M145 382C145 382.552 144.552 383 144 383C143.448 383 143 382.552 143 382C143 381.448 143.448 381 144 381C144.552 381 145 381.448 145 382Z" fill="#7D95FF" fill-opacity="0.2"></path><path d="M145 422C145 422.552 144.552 423 144 423C143.448 423 143 422.552 143 422C143 421.448 143.448 421 144 421C144.552 421 145 421.448 145 422Z" fill="#7D95FF" fill-opacity="0.2"></path><path d="M105 342C105 342.552 104.552 343 104 343C103.448 343 103 342.552 103 342C103 341.448 103.448 341 104 341C104.552 341 105 341.448 105 342Z" fill="#7D95FF" fill-opacity="0.2"></path><path d="M105 382C105 382.552 104.552 383 104 383C103.448 383 103 382.552 103 382C103 381.448 103.448 381 104 381C104.552 381 105 381.448 105 382Z" fill="#7D95FF" fill-opacity="0.2"></path><path d="M305 342C305 342.552 304.552 343 304 343C303.448 343 303 342.552 303 342C303 341.448 303.448 341 304 341C304.552 341 305 341.448 305 342Z" fill="#7D95FF" fill-opacity="0.2"></path><path d="M305 382C305 382.552 304.552 383 304 383C303.448 383 303 382.552 303 382C303 381.448 303.448 381 304 381C304.552 381 305 381.448 305 382Z" fill="#7D95FF" fill-opacity="0.2"></path><path d="M305 422C305 422.552 304.552 423 304 423C303.448 423 303 422.552 303 422C303 421.448 303.448 421 304 421C304.552 421 305 421.448 305 422Z" fill="#7D95FF" fill-opacity="0.2"></path><path d="M305 462C305 462.552 304.552 463 304 463C303.448 463 303 462.552 303 462C303 461.448 303.448 461 304 461C304.552 461 305 461.448 305 462Z" fill="#7D95FF" fill-opacity="0.2"></path><path d="M345 342C345 342.552 344.552 343 344 343C343.448 343 343 342.552 343 342C343 341.448 343.448 341 344 341C344.552 341 345 341.448 345 342Z" fill="#7D95FF" fill-opacity="0.2"></path><path d="M345 382C345 382.552 344.552 383 344 383C343.448 383 343 382.552 343 382C343 381.448 343.448 381 344 381C344.552 381 345 381.448 345 382Z" fill="#7D95FF" fill-opacity="0.2"></path><path d="M345 422C345 422.552 344.552 423 344 423C343.448 423 343 422.552 343 422C343 421.448 343.448 421 344 421C344.552 421 345 421.448 345 422Z" fill="#7D95FF" fill-opacity="0.2"></path><path d="M345 462C345 462.552 344.552 463 344 463C343.448 463 343 462.552 343 462C343 461.448 343.448 461 344 461C344.552 461 345 461.448 345 462Z" fill="#7D95FF" fill-opacity="0.2"></path><path d="M385 342C385 342.552 384.552 343 384 343C383.448 343 383 342.552 383 342C383 341.448 383.448 341 384 341C384.552 341 385 341.448 385 342Z" fill="#7D95FF" fill-opacity="0.2"></path><path d="M385 382C385 382.552 384.552 383 384 383C383.448 383 383 382.552 383 382C383 381.448 383.448 381 384 381C384.552 381 385 381.448 385 382Z" fill="#7D95FF" fill-opacity="0.2"></path><path d="M385 422C385 422.552 384.552 423 384 423C383.448 423 383 422.552 383 422C383 421.448 383.448 421 384 421C384.552 421 385 421.448 385 422Z" fill="#7D95FF" fill-opacity="0.2"></path><path d="M385 462C385 462.552 384.552 463 384 463C383.448 463 383 462.552 383 462C383 461.448 383.448 461 384 461C384.552 461 385 461.448 385 462Z" fill="#7D95FF" fill-opacity="0.2"></path><path d="M425 342C425 342.552 424.552 343 424 343C423.448 343 423 342.552 423 342C423 341.448 423.448 341 424 341C424.552 341 425 341.448 425 342Z" fill="#7D95FF" fill-opacity="0.2"></path><path d="M425 382C425 382.552 424.552 383 424 383C423.448 383 423 382.552 423 382C423 381.448 423.448 381 424 381C424.552 381 425 381.448 425 382Z" fill="#7D95FF" fill-opacity="0.2"></path><path d="M425 422C425 422.552 424.552 423 424 423C423.448 423 423 422.552 423 422C423 421.448 423.448 421 424 421C424.552 421 425 421.448 425 422Z" fill="#7D95FF" fill-opacity="0.2"></path><path d="M425 462C425 462.552 424.552 463 424 463C423.448 463 423 462.552 423 462C423 461.448 423.448 461 424 461C424.552 461 425 461.448 425 462Z" fill="#7D95FF" fill-opacity="0.2"></path><path d="M465 342C465 342.552 464.552 343 464 343C463.448 343 463 342.552 463 342C463 341.448 463.448 341 464 341C464.552 341 465 341.448 465 342Z" fill="#7D95FF" fill-opacity="0.2"></path><path d="M465 382C465 382.552 464.552 383 464 383C463.448 383 463 382.552 463 382C463 381.448 463.448 381 464 381C464.552 381 465 381.448 465 382Z" fill="#7D95FF" fill-opacity="0.2"></path><path d="M465 422C465 422.552 464.552 423 464 423C463.448 423 463 422.552 463 422C463 421.448 463.448 421 464 421C464.552 421 465 421.448 465 422Z" fill="#7D95FF" fill-opacity="0.2"></path><path d="M465 462C465 462.552 464.552 463 464 463C463.448 463 463 462.552 463 462C463 461.448 463.448 461 464 461C464.552 461 465 461.448 465 462Z" fill="#7D95FF" fill-opacity="0.2"></path><path d="M505 342C505 342.552 504.552 343 504 343C503.448 343 503 342.552 503 342C503 341.448 503.448 341 504 341C504.552 341 505 341.448 505 342Z" fill="#7D95FF" fill-opacity="0.2"></path><path d="M505 382C505 382.552 504.552 383 504 383C503.448 383 503 382.552 503 382C503 381.448 503.448 381 504 381C504.552 381 505 381.448 505 382Z" fill="#7D95FF" fill-opacity="0.2"></path><path d="M505 422C505 422.552 504.552 423 504 423C503.448 423 503 422.552 503 422C503 421.448 503.448 421 504 421C504.552 421 505 421.448 505 422Z" fill="#7D95FF" fill-opacity="0.2"></path><path d="M505 462C505 462.552 504.552 463 504 463C503.448 463 503 462.552 503 462C503 461.448 503.448 461 504 461C504.552 461 505 461.448 505 462Z" fill="#7D95FF" fill-opacity="0.2"></path><path d="M545 342C545 342.552 544.552 343 544 343C543.448 343 543 342.552 543 342C543 341.448 543.448 341 544 341C544.552 341 545 341.448 545 342Z" fill="#7D95FF" fill-opacity="0.2"></path><path d="M545 382C545 382.552 544.552 383 544 383C543.448 383 543 382.552 543 382C543 381.448 543.448 381 544 381C544.552 381 545 381.448 545 382Z" fill="#7D95FF" fill-opacity="0.2"></path><path d="M545 422C545 422.552 544.552 423 544 423C543.448 423 543 422.552 543 422C543 421.448 543.448 421 544 421C544.552 421 545 421.448 545 422Z" fill="#7D95FF" fill-opacity="0.2"></path><path d="M545 462C545 462.552 544.552 463 544 463C543.448 463 543 462.552 543 462C543 461.448 543.448 461 544 461C544.552 461 545 461.448 545 462Z" fill="#7D95FF" fill-opacity="0.2"></path><path d="M585 342C585 342.552 584.552 343 584 343C583.448 343 583 342.552 583 342C583 341.448 583.448 341 584 341C584.552 341 585 341.448 585 342Z" fill="#7D95FF" fill-opacity="0.2"></path><path d="M585 382C585 382.552 584.552 383 584 383C583.448 383 583 382.552 583 382C583 381.448 583.448 381 584 381C584.552 381 585 381.448 585 382Z" fill="#7D95FF" fill-opacity="0.2"></path><path d="M585 422C585 422.552 584.552 423 584 423C583.448 423 583 422.552 583 422C583 421.448 583.448 421 584 421C584.552 421 585 421.448 585 422Z" fill="#7D95FF" fill-opacity="0.2"></path><path d="M585 462C585 462.552 584.552 463 584 463C583.448 463 583 462.552 583 462C583 461.448 583.448 461 584 461C584.552 461 585 461.448 585 462Z" fill="#7D95FF" fill-opacity="0.2"></path><path d="M625 342C625 342.552 624.552 343 624 343C623.448 343 623 342.552 623 342C623 341.448 623.448 341 624 341C624.552 341 625 341.448 625 342Z" fill="#7D95FF" fill-opacity="0.2"></path><path d="M625 382C625 382.552 624.552 383 624 383C623.448 383 623 382.552 623 382C623 381.448 623.448 381 624 381C624.552 381 625 381.448 625 382Z" fill="#7D95FF" fill-opacity="0.2"></path><path d="M625 422C625 422.552 624.552 423 624 423C623.448 423 623 422.552 623 422C623 421.448 623.448 421 624 421C624.552 421 625 421.448 625 422Z" fill="#7D95FF" fill-opacity="0.2"></path><path d="M625 462C625 462.552 624.552 463 624 463C623.448 463 623 462.552 623 462C623 461.448 623.448 461 624 461C624.552 461 625 461.448 625 462Z" fill="#7D95FF" fill-opacity="0.2"></path><path d="M665 342C665 342.552 664.552 343 664 343C663.448 343 663 342.552 663 342C663 341.448 663.448 341 664 341C664.552 341 665 341.448 665 342Z" fill="#7D95FF" fill-opacity="0.2"></path><path d="M665 382C665 382.552 664.552 383 664 383C663.448 383 663 382.552 663 382C663 381.448 663.448 381 664 381C664.552 381 665 381.448 665 382Z" fill="#7D95FF" fill-opacity="0.2"></path><path d="M665 422C665 422.552 664.552 423 664 423C663.448 423 663 422.552 663 422C663 421.448 663.448 421 664 421C664.552 421 665 421.448 665 422Z" fill="#7D95FF" fill-opacity="0.2"></path><path d="M665 462C665 462.552 664.552 463 664 463C663.448 463 663 462.552 663 462C663 461.448 663.448 461 664 461C664.552 461 665 461.448 665 462Z" fill="#7D95FF" fill-opacity="0.2"></path><path d="M705 342C705 342.552 704.552 343 704 343C703.448 343 703 342.552 703 342C703 341.448 703.448 341 704 341C704.552 341 705 341.448 705 342Z" fill="#7D95FF" fill-opacity="0.2"></path><path d="M705 382C705 382.552 704.552 383 704 383C703.448 383 703 382.552 703 382C703 381.448 703.448 381 704 381C704.552 381 705 381.448 705 382Z" fill="#7D95FF" fill-opacity="0.2"></path><path d="M705 422C705 422.552 704.552 423 704 423C703.448 423 703 422.552 703 422C703 421.448 703.448 421 704 421C704.552 421 705 421.448 705 422Z" fill="#7D95FF" fill-opacity="0.2"></path><path d="M705 462C705 462.552 704.552 463 704 463C703.448 463 703 462.552 703 462C703 461.448 703.448 461 704 461C704.552 461 705 461.448 705 462Z" fill="#7D95FF" fill-opacity="0.2"></path><path d="M745 342C745 342.552 744.552 343 744 343C743.448 343 743 342.552 743 342C743 341.448 743.448 341 744 341C744.552 341 745 341.448 745 342Z" fill="#7D95FF" fill-opacity="0.2"></path><path d="M745 382C745 382.552 744.552 383 744 383C743.448 383 743 382.552 743 382C743 381.448 743.448 381 744 381C744.552 381 745 381.448 745 382Z" fill="#7D95FF" fill-opacity="0.2"></path><path d="M745 422C745 422.552 744.552 423 744 423C743.448 423 743 422.552 743 422C743 421.448 743.448 421 744 421C744.552 421 745 421.448 745 422Z" fill="#7D95FF" fill-opacity="0.2"></path><path d="M745 462C745 462.552 744.552 463 744 463C743.448 463 743 462.552 743 462C743 461.448 743.448 461 744 461C744.552 461 745 461.448 745 462Z" fill="#7D95FF" fill-opacity="0.2"></path><path d="M785 342C785 342.552 784.552 343 784 343C783.448 343 783 342.552 783 342C783 341.448 783.448 341 784 341C784.552 341 785 341.448 785 342Z" fill="#7D95FF" fill-opacity="0.2"></path><path d="M785 382C785 382.552 784.552 383 784 383C783.448 383 783 382.552 783 382C783 381.448 783.448 381 784 381C784.552 381 785 381.448 785 382Z" fill="#7D95FF" fill-opacity="0.2"></path><path d="M785 422C785 422.552 784.552 423 784 423C783.448 423 783 422.552 783 422C783 421.448 783.448 421 784 421C784.552 421 785 421.448 785 422Z" fill="#7D95FF" fill-opacity="0.2"></path><path d="M785 462C785 462.552 784.552 463 784 463C783.448 463 783 462.552 783 462C783 461.448 783.448 461 784 461C784.552 461 785 461.448 785 462Z" fill="#7D95FF" fill-opacity="0.2"></path><path d="M825 342C825 342.552 824.552 343 824 343C823.448 343 823 342.552 823 342C823 341.448 823.448 341 824 341C824.552 341 825 341.448 825 342Z" fill="#7D95FF" fill-opacity="0.2"></path><path d="M825 382C825 382.552 824.552 383 824 383C823.448 383 823 382.552 823 382C823 381.448 823.448 381 824 381C824.552 381 825 381.448 825 382Z" fill="#7D95FF" fill-opacity="0.2"></path><path d="M825 422C825 422.552 824.552 423 824 423C823.448 423 823 422.552 823 422C823 421.448 823.448 421 824 421C824.552 421 825 421.448 825 422Z" fill="#7D95FF" fill-opacity="0.2"></path><path d="M825 462C825 462.552 824.552 463 824 463C823.448 463 823 462.552 823 462C823 461.448 823.448 461 824 461C824.552 461 825 461.448 825 462Z" fill="#7D95FF" fill-opacity="0.2"></path><path d="M865 342C865 342.552 864.552 343 864 343C863.448 343 863 342.552 863 342C863 341.448 863.448 341 864 341C864.552 341 865 341.448 865 342Z" fill="#7D95FF" fill-opacity="0.2"></path><path d="M865 382C865 382.552 864.552 383 864 383C863.448 383 863 382.552 863 382C863 381.448 863.448 381 864 381C864.552 381 865 381.448 865 382Z" fill="#7D95FF" fill-opacity="0.2"></path><path d="M865 422C865 422.552 864.552 423 864 423C863.448 423 863 422.552 863 422C863 421.448 863.448 421 864 421C864.552 421 865 421.448 865 422Z" fill="#7D95FF" fill-opacity="0.2"></path><path d="M865 462C865 462.552 864.552 463 864 463C863.448 463 863 462.552 863 462C863 461.448 863.448 461 864 461C864.552 461 865 461.448 865 462Z" fill="#7D95FF" fill-opacity="0.2"></path><path d="M105 302C105 301.448 104.552 301 104 301C103.448 301 103 301.448 103 302C103 302.552 103.448 303 104 303C104.552 303 105 302.552 105 302Z" fill="#7D95FF" fill-opacity="0.2"></path><path d="M1303 342C1303 342.552 1303.45 343 1304 343C1304.55 343 1305 342.552 1305 342C1305 341.448 1304.55 341 1304 341C1303.45 341 1303 341.448 1303 342Z" fill="#7D95FF" fill-opacity="0.2"></path><path d="M1303 382C1303 382.552 1303.45 383 1304 383C1304.55 383 1305 382.552 1305 382C1305 381.448 1304.55 381 1304 381C1303.45 381 1303 381.448 1303 382Z" fill="#7D95FF" fill-opacity="0.2"></path><path d="M1263 342C1263 342.552 1263.45 343 1264 343C1264.55 343 1265 342.552 1265 342C1265 341.448 1264.55 341 1264 341C1263.45 341 1263 341.448 1263 342Z" fill="#7D95FF" fill-opacity="0.2"></path><path d="M1263 382C1263 382.552 1263.45 383 1264 383C1264.55 383 1265 382.552 1265 382C1265 381.448 1264.55 381 1264 381C1263.45 381 1263 381.448 1263 382Z" fill="#7D95FF" fill-opacity="0.2"></path><path d="M1263 422C1263 422.552 1263.45 423 1264 423C1264.55 423 1265 422.552 1265 422C1265 421.448 1264.55 421 1264 421C1263.45 421 1263 421.448 1263 422Z" fill="#7D95FF" fill-opacity="0.2"></path><path d="M1223 342C1223 342.552 1223.45 343 1224 343C1224.55 343 1225 342.552 1225 342C1225 341.448 1224.55 341 1224 341C1223.45 341 1223 341.448 1223 342Z" fill="#7D95FF" fill-opacity="0.2"></path><path d="M1223 382C1223 382.552 1223.45 383 1224 383C1224.55 383 1225 382.552 1225 382C1225 381.448 1224.55 381 1224 381C1223.45 381 1223 381.448 1223 382Z" fill="#7D95FF" fill-opacity="0.2"></path><path d="M1223 422C1223 422.552 1223.45 423 1224 423C1224.55 423 1225 422.552 1225 422C1225 421.448 1224.55 421 1224 421C1223.45 421 1223 421.448 1223 422Z" fill="#7D95FF" fill-opacity="0.2"></path><path d="M1183 342C1183 342.552 1183.45 343 1184 343C1184.55 343 1185 342.552 1185 342C1185 341.448 1184.55 341 1184 341C1183.45 341 1183 341.448 1183 342Z" fill="#7D95FF" fill-opacity="0.2"></path><path d="M1183 382C1183 382.552 1183.45 383 1184 383C1184.55 383 1185 382.552 1185 382C1185 381.448 1184.55 381 1184 381C1183.45 381 1183 381.448 1183 382Z" fill="#7D95FF" fill-opacity="0.2"></path><path d="M1183 422C1183 422.552 1183.45 423 1184 423C1184.55 423 1185 422.552 1185 422C1185 421.448 1184.55 421 1184 421C1183.45 421 1183 421.448 1183 422Z" fill="#7D95FF" fill-opacity="0.2"></path><path d="M1183 462C1183 462.552 1183.45 463 1184 463C1184.55 463 1185 462.552 1185 462C1185 461.448 1184.55 461 1184 461C1183.45 461 1183 461.448 1183 462Z" fill="#7D95FF" fill-opacity="0.2"></path><path d="M1143 342C1143 342.552 1143.45 343 1144 343C1144.55 343 1145 342.552 1145 342C1145 341.448 1144.55 341 1144 341C1143.45 341 1143 341.448 1143 342Z" fill="#7D95FF" fill-opacity="0.2"></path><path d="M1143 382C1143 382.552 1143.45 383 1144 383C1144.55 383 1145 382.552 1145 382C1145 381.448 1144.55 381 1144 381C1143.45 381 1143 381.448 1143 382Z" fill="#7D95FF" fill-opacity="0.2"></path><path d="M1143 422C1143 422.552 1143.45 423 1144 423C1144.55 423 1145 422.552 1145 422C1145 421.448 1144.55 421 1144 421C1143.45 421 1143 421.448 1143 422Z" fill="#7D95FF" fill-opacity="0.2"></path><path d="M1143 462C1143 462.552 1143.45 463 1144 463C1144.55 463 1145 462.552 1145 462C1145 461.448 1144.55 461 1144 461C1143.45 461 1143 461.448 1143 462Z" fill="#7D95FF" fill-opacity="0.2"></path><path d="M1103 342C1103 342.552 1103.45 343 1104 343C1104.55 343 1105 342.552 1105 342C1105 341.448 1104.55 341 1104 341C1103.45 341 1103 341.448 1103 342Z" fill="#7D95FF" fill-opacity="0.2"></path><path d="M1103 382C1103 382.552 1103.45 383 1104 383C1104.55 383 1105 382.552 1105 382C1105 381.448 1104.55 381 1104 381C1103.45 381 1103 381.448 1103 382Z" fill="#7D95FF" fill-opacity="0.2"></path><path d="M1103 422C1103 422.552 1103.45 423 1104 423C1104.55 423 1105 422.552 1105 422C1105 421.448 1104.55 421 1104 421C1103.45 421 1103 421.448 1103 422Z" fill="#7D95FF" fill-opacity="0.2"></path><path d="M1103 462C1103 462.552 1103.45 463 1104 463C1104.55 463 1105 462.552 1105 462C1105 461.448 1104.55 461 1104 461C1103.45 461 1103 461.448 1103 462Z" fill="#7D95FF" fill-opacity="0.2"></path><path d="M1063 342C1063 342.552 1063.45 343 1064 343C1064.55 343 1065 342.552 1065 342C1065 341.448 1064.55 341 1064 341C1063.45 341 1063 341.448 1063 342Z" fill="#7D95FF" fill-opacity="0.2"></path><path d="M1063 382C1063 382.552 1063.45 383 1064 383C1064.55 383 1065 382.552 1065 382C1065 381.448 1064.55 381 1064 381C1063.45 381 1063 381.448 1063 382Z" fill="#7D95FF" fill-opacity="0.2"></path><path d="M1063 422C1063 422.552 1063.45 423 1064 423C1064.55 423 1065 422.552 1065 422C1065 421.448 1064.55 421 1064 421C1063.45 421 1063 421.448 1063 422Z" fill="#7D95FF" fill-opacity="0.2"></path><path d="M1063 462C1063 462.552 1063.45 463 1064 463C1064.55 463 1065 462.552 1065 462C1065 461.448 1064.55 461 1064 461C1063.45 461 1063 461.448 1063 462Z" fill="#7D95FF" fill-opacity="0.2"></path><path d="M1023 342C1023 342.552 1023.45 343 1024 343C1024.55 343 1025 342.552 1025 342C1025 341.448 1024.55 341 1024 341C1023.45 341 1023 341.448 1023 342Z" fill="#7D95FF" fill-opacity="0.2"></path><path d="M1023 382C1023 382.552 1023.45 383 1024 383C1024.55 383 1025 382.552 1025 382C1025 381.448 1024.55 381 1024 381C1023.45 381 1023 381.448 1023 382Z" fill="#7D95FF" fill-opacity="0.2"></path><path d="M1023 422C1023 422.552 1023.45 423 1024 423C1024.55 423 1025 422.552 1025 422C1025 421.448 1024.55 421 1024 421C1023.45 421 1023 421.448 1023 422Z" fill="#7D95FF" fill-opacity="0.2"></path><path d="M1023 462C1023 462.552 1023.45 463 1024 463C1024.55 463 1025 462.552 1025 462C1025 461.448 1024.55 461 1024 461C1023.45 461 1023 461.448 1023 462Z" fill="#7D95FF" fill-opacity="0.2"></path><path d="M983 342C983 342.552 983.448 343 984 343C984.552 343 985 342.552 985 342C985 341.448 984.552 341 984 341C983.448 341 983 341.448 983 342Z" fill="#7D95FF" fill-opacity="0.2"></path><path d="M983 382C983 382.552 983.448 383 984 383C984.552 383 985 382.552 985 382C985 381.448 984.552 381 984 381C983.448 381 983 381.448 983 382Z" fill="#7D95FF" fill-opacity="0.2"></path><path d="M983 422C983 422.552 983.448 423 984 423C984.552 423 985 422.552 985 422C985 421.448 984.552 421 984 421C983.448 421 983 421.448 983 422Z" fill="#7D95FF" fill-opacity="0.2"></path><path d="M983 462C983 462.552 983.448 463 984 463C984.552 463 985 462.552 985 462C985 461.448 984.552 461 984 461C983.448 461 983 461.448 983 462Z" fill="#7D95FF" fill-opacity="0.2"></path><path d="M943 342C943 342.552 943.448 343 944 343C944.552 343 945 342.552 945 342C945 341.448 944.552 341 944 341C943.448 341 943 341.448 943 342Z" fill="#7D95FF" fill-opacity="0.2"></path><path d="M943 382C943 382.552 943.448 383 944 383C944.552 383 945 382.552 945 382C945 381.448 944.552 381 944 381C943.448 381 943 381.448 943 382Z" fill="#7D95FF" fill-opacity="0.2"></path><path d="M943 422C943 422.552 943.448 423 944 423C944.552 423 945 422.552 945 422C945 421.448 944.552 421 944 421C943.448 421 943 421.448 943 422Z" fill="#7D95FF" fill-opacity="0.2"></path><path d="M943 462C943 462.552 943.448 463 944 463C944.552 463 945 462.552 945 462C945 461.448 944.552 461 944 461C943.448 461 943 461.448 943 462Z" fill="#7D95FF" fill-opacity="0.2"></path><path d="M903 342C903 342.552 903.448 343 904 343C904.552 343 905 342.552 905 342C905 341.448 904.552 341 904 341C903.448 341 903 341.448 903 342Z" fill="#7D95FF" fill-opacity="0.2"></path><path d="M903 382C903 382.552 903.448 383 904 383C904.552 383 905 382.552 905 382C905 381.448 904.552 381 904 381C903.448 381 903 381.448 903 382Z" fill="#7D95FF" fill-opacity="0.2"></path><path d="M903 422C903 422.552 903.448 423 904 423C904.552 423 905 422.552 905 422C905 421.448 904.552 421 904 421C903.448 421 903 421.448 903 422Z" fill="#7D95FF" fill-opacity="0.2"></path><path d="M903 462C903 462.552 903.448 463 904 463C904.552 463 905 462.552 905 462C905 461.448 904.552 461 904 461C903.448 461 903 461.448 903 462Z" fill="#7D95FF" fill-opacity="0.2"></path><path d="M1303 302C1303 301.448 1303.45 301 1304 301C1304.55 301 1305 301.448 1305 302C1305 302.552 1304.55 303 1304 303C1303.45 303 1303 302.552 1303 302Z" fill="#7D95FF" fill-opacity="0.2"></path></g><g style="mix-blend-mode:multiply" opacity="0.6" filter="url(#filter0_f_4132_13077)"><path d="M1037.95 -51.6908C1055.15 -170.121 1047.58 -280.518 1035.3 -362.823C1021.54 -454.935 949.698 -527.383 857.859 -540.887C739.78 -558.136 629.711 -550.645 547.601 -538.275C455.761 -524.475 383.528 -452.422 370.065 -360.309C352.866 -241.879 360.384 -131.482 372.718 -49.1773C386.477 42.935 458.317 115.432 550.156 128.887C668.235 146.136 778.354 138.645 860.414 126.275C952.253 112.475 1024.49 40.4215 1037.95 -51.6908Z" fill="url(#paint1_radial_4132_13077)"></path></g><defs><filter id="filter0_f_4132_13077" x="110" y="-801" width="1188" height="1190" filterUnits="userSpaceOnUse" color-interpolation-filters="sRGB"><feGaussianBlur stdDeviation="125"></feGaussianBlur></filter><radialGradient id="paint0_radial_4132_13077" cx="0" cy="0" r="1" gradientUnits="userSpaceOnUse" gradientTransform="translate(704 222) rotate(90) scale(400 880)"><stop offset="0.329443" stop-color="#7D95FF"></stop><stop offset="0.869558" stop-color="#7D95FF" stop-opacity="0"></stop></radialGradient><radialGradient id="paint1_radial_4132_13077" cx="0" cy="0" r="1" gradientUnits="userSpaceOnUse" gradientTransform="translate(411.332 109.004) rotate(-53.8944) scale(813.202 802.049)"><stop stop-color="#7D95FF"></stop><stop offset="0.369792" stop-color="#87DBFF"></stop><stop offset="1" stop-color="#9FFF87"></stop></radialGradient></defs></svg>