<svg xmlns="http://www.w3.org/2000/svg" id="Layer_1" data-name="Layer 1" viewBox="0 0 500 300"><defs><style>      .cls-1 {        fill: #4545d6;        fill-rule: evenodd;        stroke-width: 0px;      }    </style></defs><g id="surface1"><path class="cls-1" d="M138.01,134.66c-.83-1.22-2.45-1.78-3.85-1.29-1.97.66-3.23,2.47-4.28,4.15-2.66,4.29-3.43,9.94-1.3,14.61.56,1.23,1.47,2.52,2.9,2.78,1.52.25,2.92-.62,4.03-1.56,2.43-2.09,3.64-5.22,4.23-8.3.66-3.5.33-7.39-1.73-10.39ZM138.01,134.66c-.83-1.22-2.45-1.78-3.85-1.29-1.97.66-3.23,2.47-4.28,4.15-2.66,4.29-3.43,9.94-1.3,14.61.56,1.23,1.47,2.52,2.9,2.78,1.52.25,2.92-.62,4.03-1.56,2.43-2.09,3.64-5.22,4.23-8.3.66-3.5.33-7.39-1.73-10.39ZM188.6,123.85c.07-3.44-1.39-6.87-3.95-9.16-2.24-2.05-5.28-3.18-8.31-3.12-35,.01-69.99,0-104.99,0-4.65,0-9.09,3.02-10.86,7.3-.81,1.82-.99,3.84-.95,5.81.03,13.13-.02,26.27.03,39.4.04,6.05,5.31,11.45,11.36,11.62,16.79.1,33.59-.06,50.38.08,7.64,4.1,15.17,8.43,22.77,12.62-1.71-4.23-3.45-8.45-5.17-12.67,12.77-.02,25.53.03,38.29-.03,6.06-.17,11.35-5.57,11.38-11.64.04-13.41,0-26.82.02-40.24ZM112.38,164.92c.11,1.96-.84,4.34-2.94,4.8-1.99.44-3.8-.86-5.05-2.26-5.71-6.15-8.94-14.11-11.28-22.05-2.36,4.65-4.72,9.3-7.01,13.99-1.6,3.17-3.29,6.4-5.85,8.92-1.08,1.07-2.91,2.04-4.3.94-2.09-1.83-2.61-4.75-3.5-7.26-3.37-11.64-5.29-23.63-7.25-35.57-.44-1.99.39-4.37,2.37-5.17,1.6-.6,3.66-.69,5.02.5.95.85,1.21,2.17,1.39,3.37,1.38,9.24,3.01,18.45,5.24,27.53,3.82-7.25,7.62-14.51,11.43-21.76.57-1.06,1.25-2.13,2.29-2.79,1.39-.89,3.45-.83,4.62.42.98,1.02,1.3,2.45,1.57,3.8,1.14,6,2.68,11.94,4.92,17.62.97-8.57,2.15-17.24,5.28-25.33.7-1.63,1.33-3.35,2.47-4.74,1.94-2.06,5.62-1.39,7.05.94.78,1.22.85,2.86.22,4.16-2.69,5.3-3.82,11.21-4.86,17.02-1.23,7.57-2.25,15.24-1.85,22.93ZM145.52,154.78c-1.58,2.94-3.65,5.75-6.56,7.48-4.26,2.59-9.99,2.27-14.11-.46-3.29-2.26-5.14-6.1-5.9-9.93-1.51-8.67,1.08-18.33,7.64-24.39,1.88-1.63,4.23-2.73,6.71-3.03,4.12-.5,8.55.86,11.36,3.99,2.29,2.59,3.57,5.94,4,9.34.7,5.81-.35,11.84-3.14,17ZM178.68,154.62c-1.6,3.02-3.72,5.92-6.71,7.68-4.1,2.46-9.51,2.23-13.57-.19-2.74-1.65-4.57-4.47-5.62-7.43-2.88-9.06-.44-19.73,6.18-26.57,1.99-1.94,4.57-3.3,7.34-3.64,4.02-.5,8.39.74,11.2,3.74,2.52,2.72,3.88,6.35,4.26,10.01.59,5.61-.44,11.42-3.1,16.41ZM167.18,133.38c-2.15.77-3.45,2.83-4.58,4.7-2.43,4.28-3.03,9.8-.83,14.3.59,1.24,1.64,2.5,3.13,2.57,1.62.06,3.01-.97,4.13-2.02,2.45-2.41,3.56-5.85,3.95-9.19.4-3.13-.12-6.49-1.94-9.11-.83-1.22-2.47-1.74-3.86-1.24ZM134.16,133.37c-1.97.66-3.23,2.47-4.28,4.15-2.66,4.29-3.43,9.94-1.3,14.61.56,1.23,1.47,2.52,2.9,2.78,1.52.25,2.92-.62,4.03-1.56,2.43-2.09,3.64-5.22,4.23-8.3.66-3.5.33-7.39-1.73-10.39-.83-1.22-2.45-1.78-3.85-1.29Z"></path><path class="cls-1" d="M430.46,154.37c0-2.2,0-4.39,0-6.58h8.59v-7.46c-2.87,0-5.74,0-8.6,0,0-2.19,0-4.38,0-6.57,3.32,0,6.65,0,9.97,0v-7.67c-6.55,0-13.1,0-19.65,0,0,11.98,0,23.96,0,35.94,6.56,0,13.12,0,19.68,0v-7.66c-3.34,0-6.68,0-10.01,0ZM387.44,145.86c2.57-1.2,4.63-3.43,5.43-6.17,1.01-3.37.11-7.33-2.5-9.76-2.89-2.74-6.99-3.7-10.86-3.83-4.11-.06-8.21,0-12.32-.03,0,11.98,0,23.97,0,35.95,3.24,0,6.48,0,9.72,0,.02-5.51-.04-11.02.03-16.53,2.71,5.49,5.31,11.04,7.99,16.54,3.41,0,6.83,0,10.24,0-2.57-5.39-5.16-10.77-7.73-16.17ZM382.02,140.32c-1.49,1.06-3.4,1.13-5.16,1.25,0-2.86,0-5.72,0-8.58,1.93.16,4.27.19,5.61,1.83,1.08,1.6,1.27,4.25-.45,5.49ZM354.43,154.42v-6.58c2.87,0,5.74,0,8.6,0,0-2.48,0-4.96,0-7.45-2.87,0-5.73,0-8.6,0v-6.58c3.31-.02,6.62.02,9.93-.02-.02-2.55,0-5.1-.01-7.65-6.56.04-13.13-.08-19.68.06.14,11.96.02,23.92.06,35.89,6.56,0,13.12,0,19.68,0,0-2.55,0-5.1,0-7.66-3.32,0-6.65,0-9.97,0ZM337.08,126.08h-12.51c-1.58,6.6-3.13,13.22-4.32,19.91-1.24-6.66-2.63-13.29-4.11-19.9-4.09-.01-8.17,0-12.26,0-1.53,11.98-3.06,23.97-4.59,35.95,3.07,0,6.13,0,9.19,0,.83-8.23,1.64-16.46,2.48-24.69,2.09,8.23,4.17,16.47,6.27,24.7,2.18,0,4.36,0,6.54,0,2-8.21,3.96-16.42,5.96-24.63.88,8.21,1.71,16.42,2.59,24.64,3.2-.01,6.4,0,9.6,0-1.61-11.98-3.23-23.97-4.85-35.95ZM293.19,126.08c-4.19,0-8.38,0-12.56,0-1.58,6.61-3.15,13.23-4.32,19.93-1.22-6.67-2.63-13.31-4.11-19.93-4.08,0-8.17,0-12.25,0-1.53,11.98-3.07,23.96-4.59,35.95,3.06,0,6.12,0,9.19,0,.83-8.22,1.65-16.45,2.47-24.67,2.12,8.22,4.18,16.45,6.27,24.67,2.18,0,4.37,0,6.56,0,1.98-8.21,4.03-16.41,5.97-24.63.94,8.2,1.73,16.42,2.62,24.63,3.2,0,6.41,0,9.61,0-1.62-11.98-3.23-23.97-4.86-35.95ZM418.06,153.53c-3.24.94-7.04,1.33-9.97-.68-3.34-2.22-4.39-6.58-4-10.37.25-3.38,2.16-6.77,5.32-8.21,2.75-1.21,5.85-.58,8.65.09-.02-2.87.05-5.74-.04-8.6-3.69-.79-7.57-.93-11.24.03-5.97,1.56-10.96,6.48-12.46,12.49-.96,3.84-.84,7.94.2,11.75,1.36,4.96,5.02,9.23,9.74,11.29,4.3,1.87,9.22,2.02,13.73.85.15-2.87.03-5.76.06-8.64ZM254.25,139.12c-.58-4.11-2.26-8.33-5.63-10.94-3.48-2.77-8.19-3.43-12.5-2.95-3.4.39-6.68,1.99-8.91,4.63-2.83,3.24-3.89,7.63-4.09,11.84-.19,4.88.26,10.01,2.71,14.33,1.78,3.2,4.94,5.58,8.51,6.38,3.87.87,8.1.76,11.73-.95,3.58-1.68,6.05-5.1,7.24-8.79,1.39-4.35,1.52-9.04.93-13.54ZM243.94,148.31c-.25,1.64-.53,3.39-1.62,4.72-1.64,2.07-5.22,2.35-7,.32-1.34-1.47-1.54-3.55-1.77-5.44-.23-3.49-.39-7.07.53-10.48.47-1.72,1.52-3.55,3.37-4.02,1.52-.39,3.27-.04,4.38,1.11,1.29,1.31,1.78,3.17,2.09,4.92.45,2.93.36,5.92.02,8.86ZM211.19,152.93c-3.17-2.01-4.37-6.01-4.18-9.59.03-3.6,1.85-7.34,5.17-8.97,2.78-1.34,5.99-.69,8.85,0,0-2.86,0-5.71,0-8.57-3.49-.81-7.18-.92-10.69-.14-6.28,1.4-11.59,6.55-13.08,12.83-.92,3.92-.78,8.09.36,11.94,1.51,5.08,5.46,9.36,10.42,11.22,4.14,1.54,8.76,1.69,12.99.46,0-2.86,0-5.71,0-8.57-3.2.92-6.92,1.33-9.84-.6Z"></path></g></svg>