<svg xmlns="http://www.w3.org/2000/svg" id="Layer_1" data-name="Layer 1" viewBox="0 0 500 300"><defs><style>      .cls-1 {        fill: #4545d6;        stroke-width: 0px;      }    </style></defs><path class="cls-1" d="M118.26,107.19h57.09v28.54h-28.54l-28.54-28.54ZM118.26,135.73h28.54l28.54,28.54h-57.09v-28.54ZM118.26,164.27h28.54v28.54l-28.54-28.54Z"></path><path class="cls-1" d="M207.56,129.7h23.07v7.33h-14.34v10.19h14.34v7.17h-14.34v13.05h-8.73v-37.74ZM235.37,141.46h8.25v5.45c.43-1.87,1.31-3.31,2.64-4.31,1.36-1.04,2.88-1.56,4.53-1.56.86,0,1.58.07,2.16.22v7.66c-.82-.1-1.65-.15-2.48-.16-2.26,0-3.97.74-5.12,2.21-1.15,1.44-1.73,3.59-1.73,6.47v10.03h-8.25v-25.99h0ZM265.97,168.14c-2.52,0-4.71-.59-6.58-1.78-1.83-1.19-3.29-2.87-4.2-4.85-.97-2.08-1.46-4.44-1.46-7.06s.51-4.93,1.51-7.01c.94-2.01,2.44-3.71,4.31-4.91,1.9-1.19,4.08-1.78,6.52-1.78,1.83,0,3.47.4,4.91,1.19,1.44.79,2.52,1.87,3.23,3.23v-3.72h8.19v25.99h-8.19v-3.67c-.72,1.29-1.83,2.35-3.34,3.18-1.51.8-3.2,1.21-4.91,1.19ZM268.35,161.3c1.98,0,3.5-.65,4.58-1.94,1.08-1.29,1.62-2.93,1.62-4.91s-.54-3.56-1.62-4.85c-1.08-1.29-2.61-1.94-4.58-1.94-1.87,0-3.38.63-4.53,1.89-1.11,1.26-1.67,2.89-1.67,4.91s.56,3.67,1.67,4.96c1.15,1.26,2.66,1.89,4.53,1.89ZM288.19,141.46h8.25v3.77c.58-1.33,1.51-2.41,2.8-3.23,1.33-.82,2.88-1.24,4.64-1.24,4.1,0,6.81,1.6,8.14,4.8.73-1.45,1.88-2.65,3.29-3.45,1.51-.91,3.25-1.38,5.01-1.35,6.15,0,9.22,3.52,9.22,10.57v16.12h-8.3v-14.61c0-1.76-.32-3.05-.97-3.88-.65-.83-1.62-1.24-2.91-1.24-1.4,0-2.48.49-3.23,1.46-.75.94-1.13,2.57-1.13,4.91v13.37h-8.3v-14.67c0-1.76-.32-3.04-.97-3.83-.61-.83-1.56-1.24-2.85-1.24-1.44,0-2.54.49-3.29,1.46-.75.94-1.13,2.57-1.13,4.91v13.37h-8.25v-25.99h0ZM360.53,153.1c0,1.11-.07,2.32-.22,3.61h-19.19c.07,1.69.65,2.98,1.73,3.88,1.08.9,2.54,1.35,4.37,1.35,2.55,0,4.17-.77,4.85-2.32h8.09c-.4,2.55-1.8,4.62-4.21,6.2-2.37,1.54-5.28,2.32-8.73,2.32-4.46,0-7.96-1.21-10.51-3.61-2.52-2.41-3.77-5.77-3.77-10.08,0-2.8.57-5.23,1.73-7.28,1.11-2.05,2.82-3.7,4.91-4.74,2.12-1.11,4.58-1.67,7.39-1.67,2.66,0,5.01.52,7.06,1.56,2.08,1.04,3.69,2.5,4.8,4.37,1.15,1.87,1.73,4.01,1.73,6.42ZM352.38,151.59c-.04-1.73-.52-3.04-1.46-3.94-.93-.9-2.28-1.35-4.04-1.35s-3.16.48-4.2,1.46c-1.01.94-1.53,2.21-1.56,3.83h11.27ZM364.16,141.46h8.25v5.45c.43-1.87,1.31-3.31,2.64-4.31,1.29-1.02,2.89-1.57,4.53-1.56.86,0,1.58.07,2.16.22v7.66c-.82-.1-1.65-.15-2.48-.16-2.26,0-3.97.74-5.12,2.21-1.15,1.44-1.73,3.59-1.73,6.47v10.03h-8.25v-25.99Z"></path></svg>