<svg xmlns="http://www.w3.org/2000/svg" xmlns:xlink="http://www.w3.org/1999/xlink" id="Layer_1" data-name="Layer 1" viewBox="0 0 500 300"><defs><style>      .cls-1 {        clip-path: url(#clippath);      }      .cls-2 {        fill: none;      }      .cls-2, .cls-3 {        stroke-width: 0px;      }      .cls-3 {        fill: #4545d6;      }    </style><clipPath id="clippath"><rect class="cls-2" x="50.45" y="117.93" width="399.11" height="64.14"></rect></clipPath></defs><g class="cls-1"><g><path class="cls-3" d="M303.05,146.98s-3.45.82-6.36,1.52l-4.43,1.01h-.04c0-1.2.09-2.46.37-3.62.37-1.49,1.17-3.23,2.57-4,1.52-.83,3.38-.93,4.99-.29,1.67.66,2.43,2.27,2.76,3.94.09.47.15.93.2,1.41l-.05.02ZM314.61,149.51c0-11.59-7.28-16.57-16.59-16.57-10.52,0-17.11,7.3-17.11,16.62,0,10.14,5.61,16.74,17.69,16.74,6.53,0,10.23-1.16,14.63-3.36l-1.67-7.59c-3.35,1.51-6.47,2.43-10.64,2.43-4.57,0-7.17-1.74-8.15-4.98h21.56c.17-.87.29-1.86.29-3.3Z"></path><path class="cls-3" d="M206.28,146.98s-3.45.82-6.36,1.52l-4.43,1.01h-.04c0-1.2.09-2.46.37-3.62.37-1.49,1.17-3.23,2.57-4,1.52-.83,3.38-.93,4.99-.29,1.67.66,2.43,2.27,2.76,3.94.09.47.15.93.2,1.41l-.05.02ZM217.84,149.51c0-11.59-7.28-16.57-16.59-16.57-10.52,0-17.11,7.3-17.11,16.62,0,10.14,5.61,16.74,17.69,16.74,6.53,0,10.23-1.16,14.63-3.36l-1.67-7.59c-3.35,1.51-6.47,2.43-10.64,2.43-4.57,0-7.17-1.74-8.15-4.98h21.56c.18-.87.29-1.86.29-3.3Z"></path><path class="cls-3" d="M179.61,124.43h-10.68v40.71h10.68v-40.71Z"></path><path class="cls-3" d="M316.86,133.99h11.22l2.36,7.2c1.48-3.55,4.8-8.12,10.7-8.12,8.1,0,12.49,4.11,12.49,14.71v17.38h-11.22c0-3.62,0-7.24.01-10.86,0-1.66-.03-3.32,0-4.98.02-1.53.13-3.11-.69-4.49-.55-.93-1.46-1.61-2.43-2.08-1.98-.95-4.12-.92-6.07.09-.48.25-2.79,1.5-2.79,2.08v20.23h-11.22v-22.76l-2.36-8.41Z"></path><path class="cls-3" d="M362.1,142.15h-5.14v-8.17h5.14v-5.11l11.22-2.65v7.75h11.27v8.17h-11.27v9.15c0,3.59,1.73,5.27,4.33,5.27s4.16-.35,6.42-1.1l1.33,8.45c-3.06,1.33-6.88,1.97-10.76,1.97-8.15,0-12.55-3.88-12.55-11.41v-12.33h0Z"></path><path class="cls-3" d="M405.58,157.04c4.11,0,6.53-2.96,6.53-7.7s-2.31-7.47-6.36-7.47-6.47,2.72-6.47,7.64c0,4.64,2.31,7.53,6.3,7.53ZM405.69,132.77c10.52,0,18.21,6.6,18.21,16.85s-7.69,16.51-18.33,16.51-18.1-6.37-18.1-16.51,7.46-16.85,18.22-16.85Z"></path><path class="cls-3" d="M270.85,133.89c-1.98-.82-4.23-1.12-6.38-.81-1.09.16-2.16.47-3.15.96-2.72,1.34-4.83,4.41-5.97,7.15-.75-3.15-2.92-5.98-6.1-7.29-1.98-.82-4.23-1.12-6.38-.81-1.09.16-2.16.47-3.15.96-2.71,1.34-4.82,4.39-5.97,7.12v-.2l-2.29-6.98h-11.22l2.36,8.41v22.75h11.14v-20.34c.04-.15.54-.43.62-.5,1.31-.93,2.84-1.89,4.47-2,1.67-.12,3.31.72,4.3,2.05.11.15.2.29.3.44.82,1.37.71,2.96.69,4.49-.02,1.66,0,3.32,0,4.98,0,3.62-.01,7.24-.01,10.86h11.22v-20.31c.02-.15.54-.44.63-.5,1.31-.93,2.84-1.89,4.47-2,1.67-.12,3.31.72,4.3,2.05.1.15.2.29.3.44.82,1.37.71,2.96.69,4.49-.02,1.66,0,3.32,0,4.98,0,3.62-.01,7.24-.01,10.86h11.22v-17.38c0-5.1-.73-11.66-6.11-13.88Z"></path><path class="cls-3" d="M450.43,133.06c-5.9,0-9.22,4.58-10.7,8.12l-2.36-7.2h-11.22l2.36,8.41v22.75h11.22v-21.02c1.6-.28,10.27,1.32,11.92,1.92v-12.94c-.4-.02-.8-.04-1.22-.04Z"></path><path class="cls-3" d="M152.85,146.98s-3.45.82-6.36,1.52l-4.43,1.01h-.04c0-1.2.09-2.46.37-3.62.37-1.49,1.17-3.23,2.57-4,1.52-.83,3.38-.93,4.99-.29,1.67.66,2.43,2.27,2.76,3.94.09.47.15.93.2,1.41l-.05.02ZM164.41,149.51c0-11.59-7.28-16.57-16.59-16.57-10.52,0-17.11,7.3-17.11,16.62,0,10.14,5.61,16.74,17.69,16.74,6.53,0,10.23-1.16,14.63-3.36l-1.67-7.59c-3.35,1.51-6.47,2.43-10.64,2.43-4.57,0-7.17-1.74-8.15-4.98h21.56c.18-.87.29-1.86.29-3.3Z"></path><path class="cls-3" d="M82.48,117.93c-17.7,0-32.04,14.37-32.04,32.1s14.34,32.1,32.04,32.1,32.04-14.37,32.04-32.1c0-17.73-14.35-32.1-32.04-32.1ZM74.48,163.39h-5.34v-26.74h5.34v26.74ZM95.83,163.39h-16.02v-5.35h16.02v5.35ZM95.83,152.7h-16.02v-5.35h16.02v5.35ZM95.83,142h-16.02v-5.35h16.02v5.35Z"></path></g></g></svg>