<svg xmlns="http://www.w3.org/2000/svg" xmlns:xlink="http://www.w3.org/1999/xlink" id="Layer_1" data-name="Layer 1" viewBox="0 0 500 300"><defs><style>      .cls-1 {        clip-path: url(#clippath);      }      .cls-2 {        fill: none;      }      .cls-2, .cls-3, .cls-4 {        stroke-width: 0px;      }      .cls-3, .cls-4 {        fill: #4545d6;      }      .cls-4 {        fill-rule: evenodd;      }    </style><clipPath id="clippath"><rect class="cls-2" x="89.37" y="123.08" width="321.27" height="53.84"></rect></clipPath></defs><g class="cls-1"><g><path class="cls-4" d="M175.22,123.28l-27.39,53.55h-25.73l11.46-22.19h-.51c-9.46,12.28-23.57,20.36-43.68,22.19v-21.89s12.86-.76,20.42-8.71h-20.42v-22.96h22.96v18.88h.52s9.38-18.88,9.38-18.88h17.36v18.76h.52s9.73-18.76,9.73-18.76h25.39Z"></path><path class="cls-3" d="M324.6,170.92h7.39v-42.44h-7.39v42.44Z"></path><path class="cls-4" d="M283.84,170.49c1.61.67,3.24,1,4.9,1,2.74,0,5.2-.67,7.37-2,2.17-1.34,3.85-3.18,5.04-5.52,1.19-2.37,1.79-5.05,1.79-8.04s-.61-5.68-1.84-8.04c-1.23-2.37-2.93-4.2-5.12-5.5-2.18-1.32-4.67-1.97-7.45-1.95-1.77,0-3.47.34-5.09,1.03-1.63.69-2.98,1.66-4.06,2.92-.08.1-.16.19-.24.29v-16.16h-7.42v42.41h7.37v-3.96c.18.23.38.46.6.68,1.17,1.21,2.56,2.16,4.17,2.84ZM291.43,163.64c-1.21.74-2.59,1.11-4.14,1.11s-2.94-.38-4.22-1.14c-1.28-.78-2.3-1.83-3.06-3.17-.74-1.34-1.11-2.85-1.11-4.55-.02-1.7.34-3.21,1.08-4.55.76-1.35,1.78-2.4,3.06-3.14,1.28-.76,2.7-1.13,4.25-1.11,1.55-.02,2.93.34,4.14,1.08,1.23.72,2.17,1.76,2.82,3.11.67,1.34,1,2.87,1,4.6s-.33,3.27-1,4.6c-.65,1.34-1.59,2.38-2.82,3.14Z"></path><path class="cls-3" d="M185.93,131.06h8.45l7.56,27.6,8.04-27.6h7.04l8.72,27.05,7.26-27.05h7.74l-11.43,39.86h-7.28l-8.87-26.42-8.14,26.42h-7.37l-11.73-39.86Z"></path><path class="cls-4" d="M253.22,171.63c-2.94.02-5.6-.63-7.96-1.95-2.35-1.34-4.2-3.19-5.55-5.55-1.34-2.37-2-5.06-2-8.1s.69-5.61,2.06-7.99c1.37-2.38,3.23-4.24,5.58-5.58,2.35-1.34,4.96-2,7.85-2,3.25,0,6.09.72,8.53,2.17,2.46,1.44,4.29,3.49,5.5,6.15,1.23,2.64,1.67,5.66,1.33,9.07h-23.2c.06,1.36.4,2.6,1.02,3.71.69,1.23,1.64,2.18,2.87,2.87,1.23.69,2.6,1.03,4.12,1.03,1.16-.02,2.23-.22,3.22-.6.99-.4,1.83-.93,2.52-1.6.7-.67,1.2-1.43,1.49-2.27h7.75c-.47,2.08-1.41,3.93-2.82,5.55-1.41,1.61-3.18,2.86-5.31,3.76-2.13.9-4.46,1.34-6.99,1.33ZM246.39,150.4c-.43.75-.73,1.57-.9,2.44h15.38c-.11-1.1-.45-2.1-1.02-3.01-.65-1.07-1.53-1.89-2.65-2.46-1.12-.6-2.38-.89-3.79-.89-1.5,0-2.86.34-4.09,1.03-1.23.69-2.2,1.65-2.92,2.9Z"></path><path class="cls-3" d="M308.38,141.08c0-2.42.55-4.57,1.65-6.45,1.1-1.9,2.64-3.37,4.63-4.41,2-1.07,4.34-1.62,7.01-1.65v6.58c-1.25.02-2.31.28-3.2.79-.87.49-1.53,1.2-2,2.14-.43.86-.67,1.87-.7,3.01h5.74v6.26h-5.74v23.59h-7.39v-23.59h-4.77v-6.26h4.77Z"></path><path class="cls-4" d="M350.79,171.57c-3.01,0-5.71-.66-8.1-1.98-2.36-1.34-4.22-3.18-5.58-5.52-1.34-2.37-2-5.05-2-8.04s.67-5.7,2-8.07c1.35-2.38,3.21-4.23,5.58-5.55,2.38-1.32,5.08-1.98,8.1-1.98s5.74.66,8.12,1.98c2.4,1.32,4.27,3.16,5.61,5.52,1.34,2.37,2.01,5.06,2.03,8.1-.02,3-.7,5.68-2.03,8.04-1.32,2.35-3.18,4.19-5.58,5.52-2.4,1.32-5.12,1.98-8.15,1.98ZM350.79,164.78c1.59,0,3-.36,4.22-1.08,1.23-.74,2.18-1.77,2.84-3.09.67-1.34,1-2.86,1-4.58s-.33-3.27-1-4.6c-.67-1.34-1.62-2.37-2.84-3.09-1.23-.74-2.64-1.11-4.22-1.11s-2.97.37-4.2,1.11c-1.21.72-2.15,1.75-2.82,3.09-.67,1.34-.99,2.87-.97,4.6,0,1.72.33,3.24,1,4.58.69,1.32,1.62,2.35,2.82,3.09,1.21.72,2.6,1.08,4.17,1.08Z"></path><path class="cls-3" d="M374.54,141.08h-8.23l8.91,29.84h7.2l5.86-19.06,6.33,19.06h7.09l8.94-29.84h-7.45l-5.07,18.58-5.6-18.58h-7.2l-5.57,18.98-5.2-18.98Z"></path></g></g></svg>