<svg xmlns="http://www.w3.org/2000/svg" id="Layer_1" data-name="Layer 1" viewBox="0 0 500 300"><defs><style>      .cls-1 {        fill: none;      }      .cls-1, .cls-2, .cls-3 {        stroke-width: 0px;      }      .cls-2, .cls-3 {        fill: #4545d6;      }      .cls-3 {        fill-rule: evenodd;      }    </style></defs><g><g><path class="cls-2" d="M197.09,112.99v57.8l7.42.03v-27.51h17.93v-7.28h-17.93v-15.75h23.34v-7.28h-30.77ZM241.26,124.71c2.69,0,4.84-2.18,4.84-4.84s-2.18-4.84-4.84-4.84-4.84,2.18-4.84,4.84,2.18,4.84,4.84,4.84ZM237.49,132v38.79h7.42v-38.79h-7.42Z"></path><path class="cls-3" d="M272.48,130.86c-9.89,0-16.77,8.36-16.77,18.27s6.88,18.27,16.77,18.27c4.53,0,8.24-1.76,10.96-4.59v5.13c0,6.43-5.04,11.79-11.64,11.79-2.38,0-4.73-.91-6.6-2.21l-3.74,6.46c2.97,1.93,6.52,3.03,10.31,3.03,10.54,0,19.07-8.53,19.07-19.07v-35.95h-7.39v3.46c-2.72-2.83-6.43-4.59-10.96-4.59ZM263.16,149.14c0-6.15,4.7-10.99,10.14-10.99s10.14,4.84,10.14,10.99-4.7,10.99-10.14,10.99-10.14-4.84-10.14-10.99h0Z"></path><path class="cls-2" d="M317.67,138.14c-4.39,0-7.96,3.74-7.96,8.13v24.51h-7.42v-38.79h7.42v3.54c2.18-2.8,5.38-4.67,9.58-4.67,5.21,0,9.21,2.58,11.53,6.54,2.58-3.82,6.77-6.54,11.84-6.54,8.47,0,13.74,6.83,13.77,15.27v24.65h-7.42v-24.53c0-4.39-3.57-8.13-7.96-8.13s-7.96,3.74-7.96,8.13v24.53h-7.42v-24.53c-.03-4.39-3.6-8.1-7.99-8.1Z"></path><path class="cls-3" d="M396.03,136.39c-3.31-3.43-7.85-5.52-13.09-5.52-11.05,0-18.93,9.38-18.93,20.54s7.85,20.54,18.93,20.54c5.24,0,9.77-2.12,13.09-5.52v4.36h7.42v-38.79h-7.42v4.39ZM371.47,151.4c0-7.39,5.67-13.26,12.3-13.26s12.3,5.84,12.3,13.26-5.67,13.26-12.3,13.26c-6.63-.03-12.3-5.86-12.3-13.26Z"></path></g><path class="cls-1" d="M99.49,105.51h59.35v89.01h-59.35v-89.01Z"></path></g><g id="Group"><g id="Rectangle_55_2" data-name="Rectangle 55_2"><path class="cls-2" d="M153.82,135.33c4.78-3.14,7.94-8.55,7.94-14.68,0-9.68-7.87-17.55-17.55-17.55h-30.11c-9.68,0-17.55,7.87-17.55,17.55,0,6.13,3.16,11.54,7.94,14.68-4.78,3.14-7.94,8.54-7.94,14.67s3.16,11.54,7.94,14.68c-4.78,3.14-7.94,8.54-7.94,14.67,0,9.68,7.92,17.55,17.64,17.55s17.84-7.96,17.84-17.74v-16.18c3.12,2.84,7.26,4.57,11.8,4.57h.38c9.68,0,17.55-7.87,17.55-17.55,0-6.13-3.16-11.54-7.94-14.67ZM132.03,108.85h12.18c6.51,0,11.8,5.29,11.8,11.8s-5.29,11.8-11.8,11.8h-12.18v-23.6ZM102.3,120.65c0-6.51,5.29-11.8,11.8-11.8h12.18v23.6h-12.18c-6.51,0-11.8-5.29-11.8-11.8ZM102.3,150c0-6.51,5.29-11.8,11.8-11.8h12.18v23.6h-12.26c-6.47-.04-11.73-5.32-11.73-11.8ZM126.28,179.16c0,6.61-5.42,11.99-12.09,11.99s-11.89-5.29-11.89-11.8,5.29-11.8,11.8-11.8h12.18v11.61h0ZM144.21,161.8h-.38c-6.51,0-11.8-5.29-11.8-11.8s5.29-11.8,11.8-11.8h.38c6.51,0,11.8,5.29,11.8,11.8s-5.29,11.8-11.8,11.8Z"></path></g><g id="Rectangle_55_4" data-name="Rectangle 55_4"><path class="cls-2" d="M114.1,161.8s-.05,0-.08,0h12.26s-12.18,0-12.18,0Z"></path></g></g></svg>