<?xml version="1.0" encoding="UTF-8"?>
<svg id="Layer_1" data-name="Layer 1" xmlns="http://www.w3.org/2000/svg" xmlns:xlink="http://www.w3.org/1999/xlink" viewBox="0 0 159.48 161.11">
  <defs>
    <style>
      .cls-1 {
        fill: url(#linear-gradient-2);
      }

      .cls-2 {
        fill: url(#linear-gradient-3);
      }

      .cls-3 {
        fill: url(#linear-gradient);
      }
    </style>
    <linearGradient id="linear-gradient" x1="55.09" y1="159.9" x2="136.09" y2="-.7" gradientUnits="userSpaceOnUse">
      <stop offset="0" stop-color="#54bed5"/>
      <stop offset="1" stop-color="#6c28d3"/>
    </linearGradient>
    <linearGradient id="linear-gradient-2" x1="45.7" y1="155.16" x2="126.7" y2="-5.44" xlink:href="#linear-gradient"/>
    <linearGradient id="linear-gradient-3" x1="190.95" y1="67.96" x2="39.51" y2="201.09" xlink:href="#linear-gradient"/>
  </defs>
  <polygon class="cls-3" points="151.58 7.98 151.58 56.58 63.03 56.58 62.92 56.39 90.87 7.98 151.58 7.98"/>
  <path class="cls-1" d="M134.24,153.14h-56.02c-8.98-1.16-16.89-5.7-22.44-12.3-.03-.03-.05-.06-.08-.1l-6-10.41h0s-14.52-25.15-14.52-25.15l-.21-.37-12.6-21.82-14.47-25.06v-1.36h55.13l15.25,26.41.15.26,12.66,21.93,12.6,21.83,2.23,3.87s0,0,0,.02l4.94,8.55.49.85h0c5.57,6.91,13.67,11.65,22.88,12.85Z"/>
  <path class="cls-2" d="M151.58,105.18v47.96h-17.34c-9.22-1.19-17.31-5.94-22.88-12.84h0s-.49-.86-.49-.86l-4.94-8.55s0-.02,0-.02l-2.23-3.87-12.6-21.83h60.49Z"/>
</svg>