<?xml version="1.0" encoding="UTF-8"?>
<svg id="Layer_1" xmlns="http://www.w3.org/2000/svg" version="1.1" viewBox="0 0 500 300">
  <!-- Generator: Adobe Illustrator 29.3.1, SVG Export Plug-In . SVG Version: 2.1.0 Build 151)  -->
  <defs>
    <style>
      .st0 {
        fill: #bbf3e5;
      }
    </style>
  </defs>
  <path class="st0" d="M378.4,172.7l-6.3-52.1c-1.7-14-13.6-24.6-27.7-24.6h-59.7c-14.1,0-26.1,10.6-27.7,24.6l-6.2,52.1c-1,7.9,1.5,15.9,6.8,21.9,5.3,6,12.9,9.4,20.9,9.4h72.2c8,0,15.6-3.4,20.9-9.4,5.3-6,7.8-13.9,6.8-21.9ZM361.2,185.5c-2.8,3.2-6.8,5-11,5h-71.4c-4.3,0-8.2-1.8-11-5-2.8-3.2-4.1-7.3-3.6-11.5l6.2-51.5c.9-7.4,7.2-13,14.6-13h59c7.5,0,13.7,5.6,14.6,13l6.2,51.5c.5,4.2-.8,8.3-3.6,11.5Z"/>
  <path class="st0" d="M350.4,156.7c-1-1.5-2.5-2.5-4.3-2.9-1.8-.4-3.6,0-5.1.9-18,11.7-35.5,11.7-53.5,0-1.5-1-3.3-1.3-5.1-.9-1.8.4-3.3,1.4-4.2,2.9-1,1.5-1.3,3.3-.9,5.1.4,1.8,1.4,3.3,2.9,4.2,11.3,7.3,22.7,11,34.1,11s22.8-3.7,34.1-11c1.5-1,2.5-2.5,2.9-4.3.4-1.8,0-3.6-.9-5.1Z"/>
  <path class="st0" d="M227.9,128.6l-6.4,2.2c.7,2.3,1.6,5.5,1.6,7.4s-1.3,3.3-3.8,3.3-4-.6-4-3.9v-5.7h-6.8v5.7c0,3.3-1.5,3.9-4.2,3.9s-4.1-.6-4.1-3.9v-5.7h-6.8v5.7c0,3.4-1.8,4-5.7,4s-5.4-.8-5.4-5.2v-24.6h-7.1v25c0,4.1-1.4,4.8-5.4,4.8h0c-3.2,0-5-.6-5-4.7v-18.5h-6.7v3.8c-12.7,2.6-17.3,7.9-17.3,14.6s4.2,10.4,10.3,10.4,6.9-2.3,7.9-5.4c.9,5.5,4.1,8.7,10.4,8.7h0c4.8,0,7.5-2.1,8.6-5.4,1.4,3.6,4.6,5.4,9.4,5.4s7.4-1.6,8.5-4.9c1.1,3.4,3.8,4.9,7.6,4.9s6.4-1.6,7.5-5c1.1,3.4,3.9,5,8.3,5,6.7,0,10.7-4.3,10.7-12.2,0-2.9-.8-6.9-1.9-9.6ZM157.9,136.5c-1.1.9-3.1,1.5-6.1,1.5s-5.5-.7-5.5-2.6,2.8-4,11.6-5.4v6.5h0Z"/>
  <path class="st0" d="M161.6,116.6c2.2,0,4-1.6,4-3.8s-1.9-3.8-4-3.8-4,1.5-4,3.8,2,3.8,4,3.8Z"/>
  <path class="st0" d="M152.6,116.6c2.2,0,4-1.6,4-3.8s-1.9-3.8-4-3.8-4,1.5-4,3.8,2,3.8,4,3.8Z"/>
  <path class="st0" d="M121.4,188.9l1.1-5.7c2.1,1.5,5.7,2.8,8.8,2.8s4.2-.9,4.2-2.3c0-4-13.9-.3-13.9-10s4.2-8.4,10.9-8.4,7,1,9.4,2.2l-1.1,5.6c-2.2-1.2-5.1-2.3-7.9-2.3s-4.1,1-4.1,2.3c0,4.2,13.9.6,13.9,9.6s-4.7,8.4-11.7,8.4c-4.2,0-7.5-1.2-9.6-2.4Z"/>
  <path class="st0" d="M166,166.1h7.3v24.5h-7.3v-4c-2,2.9-4.8,4.6-8.4,4.6-6.2,0-12.1-4.4-12.1-12.9s5.6-12.9,12.1-12.9,6.4,1.3,8.4,4v-3.3ZM166,178.2c-1.3-4.5-4-6.8-7-6.8s-5.8,2.4-5.8,6.8,2.6,6.9,5.8,6.9c3.2,0,5.8-2.8,7-6.9Z"/>
  <path class="st0" d="M178.5,190.6v-32.3h7.3v32.3h-7.3Z"/>
  <path class="st0" d="M191.1,190.6v-32.3h7.3v32.3h-7.3Z"/>
  <path class="st0" d="M223,166.1h7.3v24.5h-7.3v-4c-2,2.9-4.8,4.6-8.4,4.6-6.2,0-12.1-4.4-12.1-12.9s5.6-12.9,12.1-12.9,6.4,1.3,8.4,4v-3.3ZM223,178.2c-1.3-4.5-4-6.8-7-6.8s-5.8,2.4-5.8,6.8,2.6,6.9,5.8,6.9c3.2,0,5.8-2.8,7-6.9Z"/>
</svg>