<svg xmlns="http://www.w3.org/2000/svg" id="Layer_1" data-name="Layer 1" viewBox="0 0 1500 1000"><defs><style>      .cls-1 {        fill: rgba(255, 255, 255, .1);        stroke-width: 0px;      }    </style></defs><rect class="cls-1" x="941.13" y="134.96" width="491.81" height="1084.83" rx="49.8" ry="49.8"></rect><rect class="cls-1" x="376.43" y="134.96" width="491.81" height="180.42" rx="49.8" ry="49.8"></rect><rect class="cls-1" x="67.06" y="134.96" width="245.85" height="180.42" rx="49.8" ry="49.8"></rect><rect class="cls-1" x="67.06" y="384.01" width="801.18" height="1084.83" rx="49.8" ry="49.8"></rect><rect class="cls-1" x="999.56" y="225.17" width="374.96" height="243.81" rx="28.28" ry="28.28"></rect><rect class="cls-1" x="999.56" y="509.08" width="374.96" height="23.72" rx="11.86" ry="11.86"></rect><rect class="cls-1" x="1241.9" y="562.16" width="132.62" height="238.12" rx="11.86" ry="11.86"></rect><rect class="cls-1" x="1090.56" y="630.91" width="132.62" height="238.12" rx="11.86" ry="11.86"></rect><rect class="cls-1" x="999.56" y="626.4" width="74.19" height="238.12" rx="11.86" ry="11.86"></rect><g><rect class="cls-1" x="1149.94" y="562.16" width="74.19" height="49.97" rx="11.86" ry="11.86"></rect><rect class="cls-1" x="999.56" y="562.16" width="133.05" height="49.97" rx="11.86" ry="11.86"></rect></g><rect class="cls-1" x="1241.9" y="819.06" width="132.62" height="49.97" rx="11.86" ry="11.86"></rect><g><rect class="cls-1" x="579.23" y="463.98" width="231.87" height="156.16" rx="28.88" ry="28.88"></rect><rect class="cls-1" x="109.26" y="463.98" width="415.79" height="156.16" rx="28.88" ry="28.88"></rect></g><g><rect class="cls-1" x="109.26" y="671.89" width="231.87" height="156.16" rx="28.88" ry="28.88" transform="translate(450.38 1499.94) rotate(-180)"></rect><rect class="cls-1" x="395.3" y="671.89" width="415.79" height="156.16" rx="28.88" ry="28.88" transform="translate(1206.4 1499.94) rotate(-180)"></rect></g></svg>