<svg xmlns="http://www.w3.org/2000/svg" id="Layer_1" data-name="Layer 1" viewBox="0 0 500 300"><defs><style>      .cls-1 {        fill: #4545d6;        stroke-width: 0px;      }    </style></defs><path class="cls-1" d="M280.94,140.66h-15.23v1.62c4.76,0,5.53,1.02,5.53,7.06v10.89c0,6.04-.77,7.15-5.53,7.15-3.66-.51-6.13-2.47-9.53-6.21l-3.91-4.25c5.27-.94,8.08-4.25,8.08-8,0-4.68-4-8.25-11.49-8.25h-14.97v1.62c4.76,0,5.53,1.02,5.53,7.06v10.89c0,6.04-.77,7.15-5.53,7.15v1.62h16.93v-1.62c-4.76,0-5.53-1.11-5.53-7.15v-3.06h1.45l9.44,11.82h24.76c12.17,0,17.44-6.47,17.44-14.21s-5.27-14.12-17.44-14.12h0ZM245.3,154.53v-11.31h3.49c3.83,0,5.53,2.64,5.53,5.7s-1.7,5.61-5.53,5.61h-3.49ZM281.2,166.36h-.6c-3.06,0-3.49-.77-3.49-4.68v-18.46h4.08c8.85,0,10.46,6.47,10.46,11.49s-1.62,11.66-10.46,11.66ZM186.51,157.68l5.87-17.36c1.7-5.02.94-6.47-4.51-6.47v-1.7h15.99v1.7c-5.36,0-6.64,1.28-8.76,7.49l-9.7,29.1h-1.11l-8.68-26.63-8.85,26.63h-1.11l-9.44-29.1c-2.04-6.21-3.4-7.49-8.34-7.49v-1.7h18.89v1.7c-5.02,0-6.38,1.19-4.59,6.47l5.7,17.36,8.59-25.52h1.62l8.42,25.52ZM215.43,170.1c-9.36,0-17.02-6.89-17.02-15.31s7.66-15.23,17.02-15.23,17.02,6.89,17.02,15.23-7.66,15.31-17.02,15.31ZM215.43,142.19c-7.83,0-10.55,7.06-10.55,12.59s2.72,12.59,10.55,12.59,10.64-6.98,10.64-12.59-2.72-12.59-10.64-12.59Z"></path><path class="cls-1" d="M319.4,167.29v1.7h-19.48v-1.7c5.7,0,6.72-1.45,6.72-9.95v-13.61c0-8.51-1.02-9.87-6.72-9.87v-1.7h17.61c8.76,0,13.61,4.51,13.61,10.55s-4.85,10.46-13.61,10.46h-4.85v4.17c0,8.51,1.02,9.96,6.72,9.96h0ZM317.53,135.22h-4.85v14.8h4.85c4.77,0,6.98-3.32,6.98-7.32s-2.21-7.49-6.98-7.49ZM389.59,161l-.43,1.53c-.77,2.81-1.7,3.83-7.74,3.83h-1.19c-4.42,0-5.19-1.02-5.19-7.06v-3.91c6.64,0,7.15.59,7.15,5.02h1.62v-12.68h-1.62c0,4.42-.51,5.02-7.15,5.02v-9.53h4.68c6.04,0,6.98,1.02,7.74,3.83l.43,1.62h1.36l-.59-8h-25.01v1.62c4.76,0,5.53,1.02,5.53,7.06v10.89c0,5.53-.65,6.92-4.41,7.12-3.57-.55-6.02-2.49-9.37-6.18l-3.91-4.25c5.28-.94,8.08-4.25,8.08-8,0-4.68-4-8.25-11.49-8.25h-14.97v1.62c4.76,0,5.53,1.02,5.53,7.06v10.89c0,6.04-.77,7.15-5.53,7.15v1.62h16.93v-1.62c-4.76,0-5.53-1.11-5.53-7.15v-3.06h1.45l9.44,11.82h34.97l.51-8h-1.28ZM344.5,154.53v-11.31h3.49c3.83,0,5.53,2.64,5.53,5.7s-1.7,5.61-5.53,5.61h-3.49ZM406.86,170.1c-3.4,0-6.38-1.79-7.66-2.89-.43.43-1.19,1.7-1.36,2.89h-1.62v-11.74h1.7c.68,5.61,4.59,8.93,9.61,8.93,2.72,0,4.93-1.53,4.93-4.08,0-2.21-1.96-3.91-5.44-5.53l-4.85-2.3c-3.4-1.62-5.96-4.43-5.96-8.17,0-4.08,3.83-7.57,9.1-7.57,2.81,0,5.19,1.02,6.64,2.21.42-.34.85-1.28,1.11-2.3h1.62v10.04h-1.79c-.6-4-2.81-7.32-7.32-7.32-2.38,0-4.6,1.36-4.6,3.49s1.79,3.4,5.87,5.27l4.68,2.3c4.08,1.96,5.7,5.11,5.7,7.66,0,5.36-4.68,9.1-10.38,9.1h0ZM433.06,170.1c-3.4,0-6.38-1.79-7.66-2.89-.43.43-1.19,1.7-1.36,2.89h-1.62v-11.74h1.7c.68,5.61,4.59,8.93,9.61,8.93,2.72,0,4.93-1.53,4.93-4.08,0-2.21-1.96-3.91-5.45-5.53l-4.85-2.3c-3.4-1.62-5.96-4.43-5.96-8.17,0-4.08,3.83-7.57,9.1-7.57,2.81,0,5.19,1.02,6.64,2.21.42-.34.85-1.28,1.1-2.3h1.62v10.04h-1.79c-.6-4-2.81-7.32-7.32-7.32-2.38,0-4.6,1.36-4.6,3.49s1.79,3.4,5.87,5.27l4.68,2.3c4.08,1.96,5.7,5.11,5.7,7.66,0,5.36-4.68,9.1-10.38,9.1h0Z"></path><g><path class="cls-1" d="M62.8,150c0,14.9,8.66,27.78,21.22,33.89l-17.96-49.21c-2.15,4.82-3.26,10.04-3.26,15.32ZM125.87,148.1c0-4.65-1.67-7.88-3.11-10.38-1.91-3.1-3.7-5.73-3.7-8.83,0-3.46,2.63-6.68,6.32-6.68.17,0,.33.02.49.03-6.7-6.14-15.62-9.88-25.43-9.88-13.15,0-24.73,6.75-31.46,16.97.88.03,1.72.05,2.42.05,3.94,0,10.03-.48,10.03-.48,2.03-.12,2.27,2.86.24,3.1,0,0-2.04.24-4.31.36l13.71,40.78,8.24-24.71-5.87-16.07c-2.03-.12-3.95-.36-3.95-.36-2.03-.12-1.79-3.22.24-3.1,0,0,6.22.48,9.92.48,3.94,0,10.03-.48,10.03-.48,2.03-.12,2.27,2.86.24,3.1,0,0-2.04.24-4.31.36l13.61,40.47,3.76-12.55c1.63-5.21,2.87-8.95,2.87-12.17h0Z"></path><path class="cls-1" d="M101.11,153.29l-11.3,32.83c3.45,1.02,7.04,1.53,10.64,1.53,4.38,0,8.59-.76,12.5-2.13-.1-.16-.19-.34-.27-.52l-11.57-31.71ZM133.49,131.93c.16,1.2.25,2.49.25,3.87,0,3.82-.71,8.12-2.86,13.49l-11.5,33.25c11.19-6.53,18.72-18.65,18.72-32.54,0-6.55-1.67-12.7-4.61-18.06h0Z"></path><path class="cls-1" d="M100.45,106.11c-24.2,0-43.89,19.69-43.89,43.89s19.69,43.89,43.89,43.89,43.89-19.69,43.89-43.89c0-24.2-19.69-43.89-43.89-43.89ZM100.45,191.88c-23.09,0-41.88-18.79-41.88-41.88s18.79-41.88,41.88-41.88,41.88,18.79,41.88,41.88-18.79,41.88-41.88,41.88Z"></path></g></svg>