<?xml version="1.0" encoding="UTF-8"?>
<svg id="Layer_1" xmlns="http://www.w3.org/2000/svg" version="1.1" xmlns:xlink="http://www.w3.org/1999/xlink" viewBox="0 0 500 300">
  <!-- Generator: Adobe Illustrator 29.3.1, SVG Export Plug-In . SVG Version: 2.1.0 Build 151)  -->
  <defs>
    <style>
      .st0 {
        fill: none;
      }

      .st1, .st2 {
        fill: #1f0433;
      }

      .st2 {
        fill-rule: evenodd;
      }

      .st3 {
        clip-path: url(#clippath);
      }
    </style>
    <clipPath id="clippath">
      <rect class="st0" x="139.4" y="95.5" width="238.8" height="113.4"/>
    </clipPath>
  </defs>
  <g class="st3">
    <g>
      <path class="st1" d="M179.6,183.9h-40.3v-16.1h35c3.6,0,4.7-.9,4.7-4.6v-7.4c0-13.5-3.7-17.6-17.2-17.6h-11.2v-16.1h11.2c24.7,0,32.8,9.1,32.8,33.7v12.9c0,9-6.2,15.2-15.1,15.2h0Z"/>
      <path class="st1" d="M229.3,136v36.6c0,17.9-13.5,33.1-31.4,33.1v-16.6c9,0,15.7-7.5,15.7-16.5v-36.6h15.7ZM221.3,131.1c4.8,0,9-3.9,9-9s-4.1-9-9-9-9,4.1-9,9,3.9,9,9,9Z"/>
      <path class="st2" d="M321.4,105.7c-2.9,0-5.3,2.3-5.3,5.3,0,5.9,1.9,11.6,5.3,16.4,3.4-4.7,5.3-10.5,5.3-16.4s-2.3-5.3-5.3-5.3ZM328.5,134.9c5.4-6.8,8.4-15.2,8.4-23.9s-6.9-15.4-15.4-15.4-15.4,6.9-15.4,15.4,3,17.2,8.4,23.9l-10.4,10.4c-6.8-5.4-15.2-8.4-23.9-8.4s-15.4,6.9-15.4,15.4,6.9,15.4,15.4,15.4,17.2-3,23.9-8.4l10.4,10.4c-5.4,6.8-8.4,15.2-8.4,23.9s6.9,15.4,15.4,15.4,15.4-6.9,15.4-15.4-3-17.2-8.4-23.9l10.4-10.4c6.8,5.4,15.2,8.4,23.9,8.4s15.4-6.9,15.4-15.4-6.9-15.4-15.4-15.4-17.2,3-23.9,8.4l-10.4-10.4ZM321.4,142.2l-10,10,10,10,10-10-10-10ZM346.4,152.2c4.7,3.4,10.5,5.3,16.4,5.3s5.3-2.3,5.3-5.3-2.3-5.3-5.3-5.3c-5.9,0-11.6,1.9-16.4,5.3ZM321.4,177.2c-3.4,4.7-5.3,10.5-5.3,16.4s2.3,5.3,5.3,5.3,5.3-2.3,5.3-5.3c0-5.9-1.9-11.6-5.3-16.4ZM296.5,152.2c-4.7-3.4-10.5-5.3-16.4-5.3s-5.3,2.3-5.3,5.3,2.3,5.3,5.3,5.3c5.9,0,11.6-1.9,16.4-5.3Z"/>
    </g>
  </g>
</svg>